<svg xmlns="http://www.w3.org/2000/svg" width="100" height="41.768" viewBox="0 0 100 41.768"><defs><style>.a{fill:#2f2707;}.b{fill:#de4c36;}</style></defs><path class="a" d="M137.266,31.09c-2.193,0-3.825,1.077-3.825,3.668,0,1.952,1.076,3.308,3.707,3.308,2.23,0,3.745-1.314,3.745-3.388a3.266,3.266,0,0,0-3.627-3.587Zm-4.384,18.3a3.531,3.531,0,0,0-1.036,2.112c0,1.593,2.032,2.073,4.822,2.073,2.312,0,5.461-.162,5.461-2.311,0-1.278-1.515-1.356-3.429-1.476l-5.817-.4Zm11.8-18.175a6.321,6.321,0,0,1,1.475,4.026c0,4.424-3.467,7.014-8.488,7.014a12.662,12.662,0,0,1-3.149-.358L133.2,44l3.905.239c6.9.44,10.959.639,10.959,5.938,0,4.584-4.024,7.173-10.959,7.173-7.213,0-9.963-1.833-9.963-4.981,0-1.794.8-2.748,2.192-4.066a2.656,2.656,0,0,1-1.753-2.629,3.574,3.574,0,0,1,1.156-2.432c.717-.756,1.514-1.514,2.47-2.391a6.366,6.366,0,0,1-3.428-5.979c0-4.583,3.029-7.73,9.126-7.73a13.658,13.658,0,0,1,3.668.4h7.772v3.386l-3.667.279Z" transform="translate(-77.335 -16.874)"/><path class="a" d="M191.182,8.018a3.273,3.273,0,0,1-3.587-3.589c0-2.27,1.315-3.506,3.587-3.506,2.312,0,3.627,1.236,3.627,3.506a3.285,3.285,0,0,1-3.627,3.589Zm-5.142,23.95V28.822l2.033-.278c.558-.081.637-.2.637-.8V16.028c0-.437-.119-.718-.519-.836l-2.151-.758.438-3.227h8.251V27.745c0,.639.038.718.638.8l2.032.278v3.147Z" transform="translate(-113.159 -0.923)"/><path class="a" d="M230.2,36.313a15.94,15.94,0,0,1-6.5,1.594c-4.742,0-6.535-1.911-6.535-6.417V21.049c0-.239,0-.4-.32-.4h-2.789V17.1c3.508-.4,4.9-2.153,5.34-6.5h3.787v5.661c0,.278,0,.4.319.4h5.619V20.65h-5.938v9.525c0,2.351.559,3.267,2.71,3.267a9.5,9.5,0,0,0,3.228-.637l1.077,3.508" transform="translate(-130.204 -6.813)"/><path class="b" d="M40.949,20.016,22.726,1.795a2.688,2.688,0,0,0-3.8,0L15.142,5.579l4.8,4.8a3.192,3.192,0,0,1,4.042,4.069l4.626,4.626a3.195,3.195,0,1,1-1.916,1.8L22.38,16.563V27.916a3.2,3.2,0,0,1,.846,5.128,3.2,3.2,0,1,1-3.476-5.221V16.364a3.16,3.16,0,0,1-1.047-.7,3.2,3.2,0,0,1-.689-3.5L13.283,7.438.788,19.932a2.688,2.688,0,0,0,0,3.8L19.01,41.956a2.688,2.688,0,0,0,3.8,0L40.949,23.819a2.69,2.69,0,0,0,0-3.8" transform="translate(0 -0.975)"/></svg>