<svg xmlns="http://www.w3.org/2000/svg" width="70" height="70" viewBox="0 0 70 70"><defs><style>.a{fill:#f7df1e;}</style></defs><path class="a" d="M0,0H70V70H0Z"/><path d="M67.311,143.889l5.357-3.242c1.033,1.832,1.974,3.383,4.229,3.383,2.162,0,3.524-.845,3.524-4.134V117.529H87v22.46c0,6.813-3.994,9.915-9.821,9.915-5.262,0-8.317-2.725-9.867-6.015" transform="translate(-48.906 -85.392)"/><path d="M152.381,142.185l5.356-3.1c1.41,2.3,3.243,3.994,6.485,3.994,2.726,0,4.464-1.363,4.464-3.242,0-2.255-1.786-3.054-4.793-4.37l-1.644-.705c-4.746-2.02-7.894-4.558-7.894-9.914,0-4.934,3.759-8.693,9.633-8.693,4.182,0,7.189,1.457,9.35,5.263l-5.122,3.289c-1.128-2.02-2.349-2.819-4.229-2.819a2.862,2.862,0,0,0-3.148,2.819c0,1.973,1.222,2.772,4.041,3.994l1.644.7c5.592,2.4,8.74,4.84,8.74,10.337,0,5.921-4.652,9.163-10.9,9.163-6.108,0-10.055-2.913-11.982-6.719" transform="translate(-110.714 -84.392)"/></svg>