<svg xmlns="http://www.w3.org/2000/svg" xmlns:xlink="http://www.w3.org/1999/xlink" width="70.366" height="70" viewBox="0 0 70.366 70"><defs><style>.a{fill:url(#a);}.b{fill:url(#b);}</style><linearGradient id="a" x1="0.13" y1="0.12" x2="0.796" y2="0.782" gradientUnits="objectBoundingBox"><stop offset="0" stop-color="#387eb8"/><stop offset="1" stop-color="#366994"/></linearGradient><linearGradient id="b" x1="0.191" y1="0.206" x2="0.907" y2="0.884" gradientUnits="objectBoundingBox"><stop offset="0" stop-color="#ffe052"/><stop offset="1" stop-color="#ffc331"/></linearGradient></defs><g transform="translate(-0.145 -0.072)"><path class="a" d="M35.074.072c-17.863,0-16.748,7.747-16.748,7.747l.02,8.025H35.393v2.41H11.575S.145,16.958.145,34.982s9.977,17.385,9.977,17.385h5.954V44s-.321-9.977,9.818-9.977H42.8s9.5.153,9.5-9.18V9.412S53.742.072,35.074.072Zm-9.4,5.4a3.067,3.067,0,1,1-3.067,3.067,3.064,3.064,0,0,1,3.067-3.067Z" transform="translate(0)"/><path class="b" d="M83.4,116.618c17.863,0,16.748-7.747,16.748-7.747l-.02-8.025H83.078v-2.41H106.9s11.431,1.3,11.431-16.728-9.977-17.385-9.977-17.385h-5.954v8.364s.321,9.977-9.818,9.977H75.67s-9.5-.153-9.5,9.18v15.434s-1.442,9.34,17.226,9.34Zm9.4-5.4a3.067,3.067,0,1,1,3.067-3.067,3.064,3.064,0,0,1-3.067,3.067Z" transform="translate(-47.815 -46.546)"/></g></svg>