<svg xmlns="http://www.w3.org/2000/svg" xmlns:xlink="http://www.w3.org/1999/xlink" width="71.797" height="70" viewBox="0 0 71.797 70"><defs><style>.a{fill:url(#a);}.b{fill:#ff7f18;}</style><radialGradient id="a" cx="-436.674" cy="578.637" r="0.094" gradientTransform="translate(-2.576 2.32) scale(0.973 0.973)" gradientUnits="userSpaceOnUse"><stop offset="0" stop-color="#423325" stop-opacity="0.98"/><stop offset="1" stop-color="#1c0a00"/></radialGradient></defs><path class="a" d="M-341.6,493h65.8v64.019h-65.8Z" transform="translate(344.59 -490.01)"/><path class="b" d="M-359.41,475.19h65.8V539.21h-65.8Zm-2.99,67.01h71.8v-70h-71.8Zm47.026-45.042c0-.244.086-.359.359-.359h4.7c.244,0,.359.086.359.359v23.607c0,.244-.057.359-.359.359h-4.644c-.3,0-.388-.144-.388-.388V497.158Zm-.331-6.8a2.9,2.9,0,0,1,3.048-3.048,2.883,2.883,0,0,1,3.048,3.048,2.854,2.854,0,0,1-3.105,3.048A2.8,2.8,0,0,1-315.7,490.358Zm-13.457,16.634c-.834-3.321-2.818-10.552-3.565-14.06h-.057c-.633,3.494-2.214,9.417-3.465,14.06Zm-8.31,4.845-2.358,8.971c-.057.244-.144.3-.446.3h-4.4c-.3,0-.359-.086-.3-.446l8.5-29.731a9.8,9.8,0,0,0,.3-2.487c0-.216.086-.3.244-.3h6.283c.216,0,.3.057.359.3l9.517,32.276c.058.244,0,.388-.244.388h-4.96c-.244,0-.388-.057-.446-.273l-2.458-9h-9.589Z" transform="translate(362.4 -472.2)"/></svg>