<svg xmlns="http://www.w3.org/2000/svg" width="71.795" height="70" viewBox="0 0 71.795 70"><defs><style>.a{fill:#2e001e;}.b{fill:#ff2bc2;}</style></defs><path class="a" d="M10,10H75.812V74.017H10Z" transform="translate(-7.009 -7.009)"/><path class="b" d="M0,0V70H71.795V0ZM2.991,2.991H68.8V67.009H2.991Z"/><path class="b" d="M83.824,68.3a4.108,4.108,0,0,0-1.735-.3c-3.769,0-6.282,2.9-6.282,7.718,0,5.5,2.573,7.718,5.923,7.718a5.644,5.644,0,0,0,2.064-.329V68.3Zm-13.4,7.658c0-6.97,4.487-12.415,11.846-12.415a13.266,13.266,0,0,1,1.556.06V55.829a.3.3,0,0,1,.3-.3H88.94c.239,0,.3.09.3.239V83.111a21.307,21.307,0,0,0,.15,2.932c0,.209,0,.239-.179.329a17.819,17.819,0,0,1-7.658,1.735c-6.491,0-11.128-4.009-11.128-12.145Zm-10.2-4.846L68.6,87.359c.15.239.06.479-.179.479H63.213a.587.587,0,0,1-.628-.389q-2.872-5.923-5.863-12.295h-.06c-1.795,4.009-3.769,8.376-5.684,12.325a.574.574,0,0,1-.538.329H45.474c-.3,0-.329-.239-.179-.419l8.2-15.765L45.563,55.949a.265.265,0,0,1,.209-.449h5.145c.3,0,.449.06.538.329,1.885,3.979,3.8,7.9,5.594,11.906h.06c1.735-3.949,3.65-7.927,5.474-11.846.15-.239.239-.389.538-.389H67.94c.239,0,.329.179.179.449Z" transform="translate(-31.683 -38.897)"/></svg>