<svg xmlns="http://www.w3.org/2000/svg" xmlns:xlink="http://www.w3.org/1999/xlink" width="77.846" height="70" viewBox="0 0 77.846 70"><defs><style>.a{fill:none;}.b{fill:#2684ff;}.c{fill:url(#a);}</style><linearGradient id="a" x1="1.086" y1="0.138" x2="0.469" y2="0.788" gradientUnits="objectBoundingBox"><stop offset="0.18" stop-color="#0052cc"/><stop offset="1" stop-color="#2684ff"/></linearGradient></defs><path class="a" d="M91.382,100.145h16.253l3.923-22.9H87.06Z" transform="translate(-60.586 -53.754)"/><path class="b" d="M2.526,0A2.494,2.494,0,0,0,.032,2.893L10.62,67.169A3.392,3.392,0,0,0,13.937,70H64.732a2.494,2.494,0,0,0,2.494-2.1l10.588-65A2.494,2.494,0,0,0,75.32.013ZM47.11,46.454H30.9L26.508,23.52H51.039Z" transform="translate(0 0)"/><path class="c" d="M101.252,77.242H77.863l-3.925,22.916h-16.2l-19.128,22.7a3.377,3.377,0,0,0,2.181.822H91.558a2.492,2.492,0,0,0,2.492-2.093Z" transform="translate(-26.87 -53.754)"/></svg>