<svg xmlns="http://www.w3.org/2000/svg" width="40" height="40" viewBox="0 0 40 40"><defs><style>.a{fill:#ffb15b;}.b{fill:none;stroke:#fff;stroke-miterlimit:10;}.c{fill:#fff;}</style></defs><g transform="translate(-1185 -793)"><rect class="a" width="40" height="40" transform="translate(1185 793)"/><g transform="translate(1093 -1419)"><g transform="translate(101 2222)"><path class="b" d="M101,2225.333v12.857a3.818,3.818,0,0,0,3.826,3.81h14.348a3.818,3.818,0,0,0,3.826-3.81v-11.428H102.514a1.5,1.5,0,0,1-1.514-1.5v0a1.5,1.5,0,0,1,1.364-1.492L121.087,2222v4.762" transform="translate(-101 -2222)"/></g><path class="b" d="M138.652,2246.715H133.87a2.863,2.863,0,0,1-2.87-2.857h0a2.863,2.863,0,0,1,2.87-2.857h4.783Z" transform="translate(-15.652 -9.952)"/><ellipse class="c" cx="0.957" cy="0.952" rx="0.957" ry="0.952" transform="translate(117.739 2232.953)"/></g></g></svg>