<svg xmlns="http://www.w3.org/2000/svg" width="49.593" height="70" viewBox="0 0 49.593 70"><defs><style>.a{fill:#264de4;}.b{fill:#2965f1;}.c{fill:#ebebeb;}.d{fill:#fff;}</style></defs><g transform="translate(-0.445)"><path class="a" d="M25.211,127.009,4.958,121.387.445,70.766H50.038L45.52,121.379l-20.309,5.63Z" transform="translate(0 -57.009)"/><path class="b" d="M144.41,135.309l3.861-43.251H128v47.8l16.41-4.549Z" transform="translate(-102.759 -74.162)"/><path class="c" d="M53.669,188.636l.556,6.208H68.118v-6.208Z" transform="translate(-42.877 -151.966)"/><path class="c" d="M47.917,124l.564,6.208h15V124Z" transform="translate(-38.243 -99.891)"/><path class="c" d="M71.574,243.353l-.027.007-6.914-1.867-.442-4.951H57.958l.87,9.748,12.718,3.53.029-.008v-6.459Z" transform="translate(-46.332 -190.559)"/><path d="M60.483,0H68V3.145H63.628V6.289H68V9.434h-7.52V0Z" transform="translate(-48.367)"/><path d="M106.9,0h7.519V2.734h-4.375v.547h4.375V9.57H106.9V6.7h4.375V6.152H106.9V0Z" transform="translate(-85.761)"/><path d="M153.319,0h7.519V2.734h-4.375v.547h4.375V9.57h-7.519V6.7h4.375V6.152h-4.375V0Z" transform="translate(-123.156)"/><path class="d" d="M142.321,136.561,143.442,124H127.89V130.2h8.748l-.565,6.358H127.89v6.208h7.645l-.721,8.052-6.924,1.869v6.459l12.728-3.527.094-1.049,1.459-16.345.151-1.667Z" transform="translate(-102.67 -99.891)"/></g></svg>