<svg xmlns="http://www.w3.org/2000/svg" width="70" height="58.729" viewBox="0 0 70 58.729"><defs><style>.a{fill:#364548;}.a,.b,.c,.d,.e,.f,.g,.h,.i{fill-rule:evenodd;}.b{fill:#22a0c8;}.c{fill:#37b1d9;}.d{fill:#1b81a5;}.e{fill:#1d91b4;}.f{fill:#23a3c2;}.g{fill:#34bbde;}.h{fill:#d3ecec;}.i{fill:#bdd9d7;}</style></defs><path class="a" d="M10.7,159.286v-4.48a.978.978,0,0,1,.977-1.061h.169a.977.977,0,0,1,.975,1.061v9.431a5.944,5.944,0,0,1-3.116,5.3,5.852,5.852,0,0,1-3,.817H6.288a5.947,5.947,0,0,1-5.3-3.116,5.837,5.837,0,0,1-.817-3v-.42a5.95,5.95,0,0,1,3.115-5.3,5.831,5.831,0,0,1,3-.817h.421a5.921,5.921,0,0,1,3.991,1.584Zm-8.4,4.741a4.029,4.029,0,0,0,2.261,3.707,3.922,3.922,0,0,0,1.9.5,4.088,4.088,0,0,0,3.674-2.151,3.98,3.98,0,0,0,.569-2.094,4.052,4.052,0,0,0-1.842-3.4,3.959,3.959,0,0,0-2.36-.76,4.034,4.034,0,0,0-3.824,2.493,3.894,3.894,0,0,0-.377,1.708ZM20.181,157.7h.294a6.016,6.016,0,0,1,5.512,3.338,5.7,5.7,0,0,1,.727,2.777v.42a5.936,5.936,0,0,1-3.117,5.3,5.866,5.866,0,0,1-3,.817h-.42a5.947,5.947,0,0,1-5.3-3.116,5.837,5.837,0,0,1-.818-3v-.42a5.964,5.964,0,0,1,3.115-5.3,5.8,5.8,0,0,1,3-.818Zm-3.992,6.324a4.084,4.084,0,0,0,2.153,3.633,3.929,3.929,0,0,0,2.091.569,4.057,4.057,0,0,0,3.591-2.153,3.945,3.945,0,0,0,.568-2.092,4.039,4.039,0,0,0-1.957-3.475,3.946,3.946,0,0,0-2.245-.683,4.033,4.033,0,0,0-3.824,2.493,3.887,3.887,0,0,0-.378,1.708Zm19.344-4.032a4.095,4.095,0,0,0-5.073,2.282,3.879,3.879,0,0,0-.378,1.707,4.093,4.093,0,0,0,2.576,3.865,4.833,4.833,0,0,0,2,.337,5.255,5.255,0,0,0,1.88-.589l.088-.042h.392l.043.009a.941.941,0,0,1,.847.925v.21c0,1.292-2.361,1.587-3.261,1.65a6,6,0,0,1-6.462-4.558,5.494,5.494,0,0,1-.228-1.6v-.42a5.961,5.961,0,0,1,3.115-5.3,5.807,5.807,0,0,1,3-.818h.42a5.4,5.4,0,0,1,3.106.959l.077.053.048.08a1.117,1.117,0,0,1,.188.559v.21a.959.959,0,0,1-.894.927l-.041.007h-.125a4.777,4.777,0,0,1-1.319-.461Zm6.881,1.437c.824-.825,1.651-1.649,2.487-2.46.233-.226,1.115-1.185,1.463-1.185h.38l.043.009a.94.94,0,0,1,.847.927v.21c0,.355-.416.767-.645,1.01-.487.517-1,1.016-1.5,1.522l-2.563,2.6q1.655,1.659,3.3,3.328c.3.308.606.617.9.93a2.324,2.324,0,0,1,.349.4.869.869,0,0,1,.153.48v.219l-.012.05a1,1,0,0,1-.963.874h-.169c-.351,0-.747-.4-.988-.624-.5-.467-.974-.958-1.46-1.435l-1.629-1.6v2.555a.979.979,0,0,1-.977,1.062h-.167a.978.978,0,0,1-.977-1.062v-14.4a.976.976,0,0,1,.977-1.06h.167a.977.977,0,0,1,.977,1.06v6.584Zm26.441-3.645h.211a1,1,0,0,1,1.061,1.061c0,.878-.84,1.1-1.566,1.1a3.809,3.809,0,0,0-2.519,1.224,4.039,4.039,0,0,0-1.178,2.978v5.136a.977.977,0,0,1-.977,1.061H63.72a.977.977,0,0,1-.977-1.061v-5.431a5.961,5.961,0,0,1,2.707-4.982,5.836,5.836,0,0,1,3.406-1.09ZM53.777,167.965a4.964,4.964,0,0,0,2.445.093,5.518,5.518,0,0,1,1.822-.558l.059.01.055.027a1.2,1.2,0,0,1,.574.509,1.017,1.017,0,0,1-.4,1.428l-.182.1a6.051,6.051,0,0,1-6.159-.084,5.71,5.71,0,0,1-2.234-2.226l-.126-.219a6,6,0,0,1,.339-6.718,5.81,5.81,0,0,1,1.929-1.748l.291-.168a5.981,5.981,0,0,1,5.873-.059,5.746,5.746,0,0,1,2.479,2.3l.105.182c.424.735-.125,1.376-.693,1.814-.659.508-1.324,1.12-1.955,1.665q-2.112,1.823-4.22,3.649Zm-1.822-1.28q2.361-2.025,4.719-4.056c.536-.463,1.125-.943,1.657-1.429a4.192,4.192,0,0,0-1.747-1.158,4.184,4.184,0,0,0-5.592,4.218,3.718,3.718,0,0,0,.551,1.863,4.906,4.906,0,0,0,.411.563Z" transform="translate(-0.128 -111.653)"/><path class="a" d="M63.076,12.521h6.26v6.4H72.5a13.726,13.726,0,0,0,4.35-.729,11.138,11.138,0,0,0,2.115-.955A7.85,7.85,0,0,1,77.5,13.189a8.548,8.548,0,0,1,1.536-6.024l.658-.761.784.63A9.969,9.969,0,0,1,84.4,13.363a9.568,9.568,0,0,1,7.264.676l.86.5-.452.883c-1.772,3.459-5.477,4.53-9.1,4.34-5.42,13.5-17.22,19.891-31.528,19.891-7.392,0-14.174-2.763-18.036-9.321l-.063-.107-.563-1.145a18.156,18.156,0,0,1-1.445-9.209l.088-.946h5.353v-6.4h6.26V6.26H55.563V0h7.513V12.521" transform="translate(-22.696)"/><path class="b" d="M86.125,35.7c.42-3.262-2.022-5.825-3.536-7.041-1.745,2.017-2.016,7.3.721,9.53a13.166,13.166,0,0,1-8.043,2.587H35.147A16.906,16.906,0,0,0,36.81,50.1l.456.835a15.443,15.443,0,0,0,.946,1.42h0q2.474.159,4.562.112h0a22.374,22.374,0,0,0,6.656-.969.482.482,0,1,1,.316.911c-.225.078-.459.151-.7.22h0a20.945,20.945,0,0,1-4.6.749c.109,0-.114.016-.115.017-.063,0-.141.013-.2.016-.725.041-1.507.049-2.307.049-.875,0-1.737-.017-2.7-.065l-.025.016c3.343,3.757,8.57,6.011,15.122,6.011,13.866,0,25.628-6.147,30.836-19.947,3.695.379,7.246-.563,8.861-3.716a8.717,8.717,0,0,0-7.787-.054" transform="translate(-25.463 -20.814)"/><path class="c" d="M92.625,35.7c.42-3.262-2.022-5.825-3.536-7.041-1.745,2.017-2.016,7.3.721,9.53a13.166,13.166,0,0,1-8.043,2.587H44.023c-.164,5.269,1.792,9.269,5.251,11.687h0a22.374,22.374,0,0,0,6.656-.969.482.482,0,1,1,.316.911c-.225.078-.459.151-.7.22h0a22.022,22.022,0,0,1-4.724.782l-.045-.042c4.719,2.421,11.562,2.412,19.407-.6A54.542,54.542,0,0,0,92.876,35.583c-.086.039-.17.079-.251.119" transform="translate(-31.963 -20.814)"/><path class="d" d="M35.645,88.186a16.042,16.042,0,0,0,1.588,5.14l.456.835a15.41,15.41,0,0,0,.946,1.42q2.475.159,4.562.112a22.374,22.374,0,0,0,6.656-.969.482.482,0,1,1,.316.911c-.225.078-.459.151-.7.22h0a22.029,22.029,0,0,1-4.716.766c-.063,0-.173,0-.237.008-.725.041-1.5.066-2.3.066-.875,0-1.769-.017-2.733-.066,3.343,3.757,8.6,6.019,15.154,6.019,11.871,0,22.2-4.506,28.194-14.462H35.645" transform="translate(-25.886 -64.043)"/><path class="e" d="M45.367,88.186a12.049,12.049,0,0,0,4.891,7.506,22.375,22.375,0,0,0,6.656-.969.482.482,0,1,1,.316.911c-.225.078-.459.151-.7.22h0a22.361,22.361,0,0,1-4.748.766c4.719,2.42,11.542,2.385,19.386-.628a51.237,51.237,0,0,0,13.411-7.807H45.367" transform="translate(-32.947 -64.043)"/><path class="f" d="M55.261,49.543h5.425v5.426H55.261Zm.452.452h.428v4.522h-.428Zm.8,0h.445v4.522h-.445Zm.822,0h.445v4.522h-.445Zm.822,0h.445v4.522h-.445Zm.822,0h.445v4.522h-.445Zm.822,0h.428v4.522h-.428Z" transform="translate(-40.131 -35.979)"/><path class="f" d="M78.125,26.677h5.426V32.1H78.125Zm.452.452h.428V31.65h-.428Zm.8,0h.445V31.65h-.445Zm.822,0h.445V31.65H80.2Zm.822,0h.445V31.65h-.445Zm.822,0h.445V31.65h-.445Zm.822,0H83.1V31.65h-.429Z" transform="translate(-56.736 -19.373)"/><path class="g" d="M78.125,49.543h5.426v5.426H78.125Zm.452.452h.428v4.522h-.428Zm.8,0h.445v4.522h-.445Zm.822,0h.445v4.522H80.2Zm.822,0h.445v4.522h-.445Zm.822,0h.445v4.522h-.445Zm.822,0H83.1v4.522h-.429Z" transform="translate(-56.736 -35.979)"/><path class="f" d="M100.993,49.543h5.426v5.426h-5.426Zm.452.452h.428v4.522h-.428Zm.8,0h.445v4.522h-.445Zm.822,0h.445v4.522h-.445Zm.822,0h.445v4.522h-.445Zm.822,0h.446v4.522h-.446Zm.822,0h.428v4.522h-.428Z" transform="translate(-73.343 -35.979)"/><path class="g" d="M100.993,26.677h5.426V32.1h-5.426Zm.452.452h.428V31.65h-.428Zm.8,0h.445V31.65h-.445Zm.822,0h.445V31.65h-.445Zm.822,0h.445V31.65h-.445Zm.822,0h.446V31.65h-.446Zm.822,0h.428V31.65h-.428Z" transform="translate(-73.343 -19.373)"/><path class="g" d="M123.859,49.543h5.426v5.426h-5.426Zm.452.452h.428v4.522h-.428Zm.8,0h.445v4.522h-.445Zm.822,0h.445v4.522h-.445Zm.822,0h.445v4.522h-.445Zm.822,0h.445v4.522h-.445Zm.822,0h.428v4.522H128.4Z" transform="translate(-89.949 -35.979)"/><path class="f" d="M123.859,26.677h5.426V32.1h-5.426Zm.452.452h.428V31.65h-.428Zm.8,0h.445V31.65h-.445Zm.822,0h.445V31.65h-.445Zm.822,0h.445V31.65h-.445Zm.822,0h.445V31.65h-.445Zm.822,0h.428V31.65H128.4Z" transform="translate(-89.949 -19.373)"/><path class="g" d="M123.859,3.811h5.426V9.236h-5.426Zm.452.452h.428V8.784h-.428Zm.8,0h.445V8.784h-.445Zm.822,0h.445V8.784h-.445Zm.822,0h.445V8.784h-.445Zm.822,0h.445V8.784h-.445Zm.822,0h.428V8.784H128.4Z" transform="translate(-89.949 -2.767)"/><path class="f" d="M146.725,49.543h5.426v5.426h-5.426Zm.452.452h.428v4.522h-.428Zm.8,0h.445v4.522h-.445Zm.822,0h.445v4.522H148.8Zm.822,0h.445v4.522h-.445Zm.822,0h.445v4.522h-.445Zm.822,0h.428v4.522h-.428Z" transform="translate(-106.555 -35.979)"/><path class="h" d="M92.733,101.492a1.5,1.5,0,1,1-1.5,1.5,1.5,1.5,0,0,1,1.5-1.5" transform="translate(-66.258 -73.706)"/><path class="a" d="M93.86,103.043a1.069,1.069,0,0,1,.388.073.437.437,0,1,0,.6.588,1.072,1.072,0,1,1-.99-.661" transform="translate(-67.384 -74.832)"/><path class="a" d="M0,82.494H69.63c-1.516-.385-4.8-.9-4.256-2.891-2.757,3.19-9.405,2.238-11.083.665-1.868,2.71-12.746,1.68-13.5-.431-2.342,2.749-9.6,2.749-11.943,0-.759,2.111-11.636,3.141-13.5.431-1.678,1.573-8.326,2.525-11.083-.665C4.8,81.59,1.516,82.109,0,82.494" transform="translate(0 -57.809)"/><path class="i" d="M66.067,122.957a13.185,13.185,0,0,1-6.874-6.761,22.96,22.96,0,0,1-4.955.752q-1.087.061-2.286.061-1.383,0-2.913-.081c3.4,3.4,7.581,6.013,15.325,6.061q.857,0,1.7-.032" transform="translate(-35.613 -84.384)"/><path class="h" d="M74.363,118.6a12.99,12.99,0,0,1-1.376-2.409,22.952,22.952,0,0,1-4.956.752,15.773,15.773,0,0,0,6.332,1.657" transform="translate(-49.406 -84.383)"/></svg>