<svg xmlns="http://www.w3.org/2000/svg" width="71.772" height="70" viewBox="0 0 71.772 70"><defs><style>.a{fill:#161614;}</style></defs><path class="a" d="M35.886,0A35.89,35.89,0,0,0,24.541,69.938c1.793.332,2.452-.779,2.452-1.726,0-.856-.033-3.683-.049-6.681C16.961,63.7,14.854,57.3,14.854,57.3c-1.632-4.148-3.985-5.251-3.985-5.251-3.256-2.227.245-2.182.245-2.182,3.6.253,5.5,3.7,5.5,3.7,3.2,5.486,8.4,3.9,10.443,2.983a7.643,7.643,0,0,1,2.278-4.8c-7.971-.907-16.35-3.984-16.35-17.735a13.888,13.888,0,0,1,3.7-9.632,12.9,12.9,0,0,1,.348-9.5s3.014-.964,9.871,3.678a34.039,34.039,0,0,1,17.972,0c6.849-4.643,9.859-3.678,9.859-3.678a12.879,12.879,0,0,1,.352,9.5,13.861,13.861,0,0,1,3.693,9.632c0,13.783-8.4,16.818-16.386,17.707,1.287,1.114,2.434,3.3,2.434,6.646,0,4.8-.041,8.666-.041,9.848,0,.955.646,2.074,2.465,1.722A35.891,35.891,0,0,0,35.886,0ZM13.441,51.12c-.079.178-.36.232-.615.109s-.406-.36-.322-.539.358-.235.618-.112S13.531,50.942,13.441,51.12ZM15.206,52.7c-.171.159-.506.085-.733-.166a.549.549,0,0,1-.105-.746c.176-.159.5-.084.736.166S15.385,52.535,15.206,52.7Zm1.211,2.015c-.22.153-.579.01-.8-.31s-.22-.7,0-.855.577-.015.8.3S16.641,54.555,16.417,54.711Zm2.048,2.334c-.2.217-.616.159-.922-.137s-.4-.7-.2-.917.62-.156.929.137S18.675,56.83,18.465,57.045Zm2.647.788c-.087.281-.49.409-.9.289s-.672-.452-.59-.736.49-.416.9-.288S21.2,57.547,21.112,57.833Zm3.012.334c.01.3-.335.541-.761.547s-.776-.23-.781-.521.337-.542.766-.549S24.124,57.873,24.124,58.167Zm2.959-.114c.051.289-.245.585-.669.664s-.8-.1-.855-.389.25-.593.666-.669S27.029,57.76,27.083,58.053Z"/></svg>