<svg xmlns="http://www.w3.org/2000/svg" width="51.627" height="70" viewBox="0 0 51.627 70"><defs><style>.a{fill:#5382a1;}.b{fill:#e76f00;}</style></defs><g transform="translate(-0.517 -0.371)"><path class="a" d="M69.316,267.473s-2.675,1.556,1.9,2.082a40.055,40.055,0,0,0,14.495-.615,25.223,25.223,0,0,0,3.851,1.881c-13.7,5.873-31.013-.34-20.25-3.348" transform="translate(-52.173 -212.967)"/><path class="a" d="M59.471,229.659s-3,2.221,1.582,2.695a56.546,56.546,0,0,0,18.7-.9,8.3,8.3,0,0,0,2.881,1.756c-16.568,4.845-35.022.382-23.165-3.553" transform="translate(-44.002 -182.817)"/><path class="b" d="M131.759,90.087c3.376,3.887-.887,7.385-.887,7.385s8.573-4.426,4.636-9.968c-3.677-5.168-6.5-7.737,8.769-16.591,0,0-23.964,5.985-12.518,19.173" transform="translate(-102.173 -56.245)"/><path class="a" d="M47.709,293.113s1.98,1.631-2.18,2.893c-7.91,2.4-32.921,3.12-39.869.1-2.5-1.087,2.186-2.594,3.66-2.911a9.5,9.5,0,0,1,2.415-.271c-2.778-1.957-17.954,3.842-7.709,5.5,27.939,4.531,50.931-2.04,43.684-5.309" transform="translate(0 -232.938)"/><path class="a" d="M40.546,190.435s-12.722,3.022-4.505,4.119c3.47.465,10.386.36,16.828-.18,5.265-.444,10.552-1.388,10.552-1.388a22.338,22.338,0,0,0-3.2,1.712c-12.919,3.4-37.877,1.817-30.692-1.658a24.073,24.073,0,0,1,11.017-2.6" transform="translate(-22.115 -151.533)"/><path class="a" d="M200.468,200.576c13.133-6.824,7.061-13.383,2.823-12.5a9.816,9.816,0,0,0-1.5.4,2.393,2.393,0,0,1,1.122-.866c8.385-2.948,14.833,8.694-2.707,13.305a1.138,1.138,0,0,0,.264-.344" transform="translate(-159.215 -148.918)"/><path class="b" d="M98.782.371s7.273,7.276-6.9,18.464c-11.364,8.975-2.591,14.092,0,19.939-6.634-5.985-11.5-11.254-8.236-16.158,4.794-7.2,18.073-10.688,15.139-22.245" transform="translate(-65.448)"/><path class="a" d="M56.336,319.438c12.606.807,31.964-.448,32.423-6.412,0,0-.881,2.261-10.418,4.057a103.646,103.646,0,0,1-31.9.491s1.611,1.334,9.9,1.865" transform="translate(-36.615 -249.287)"/></g></svg>