<svg xmlns="http://www.w3.org/2000/svg" width="62.122" height="70" viewBox="0 0 62.122 70"><defs><style>.a{fill:#539e43;}</style></defs><path class="a" d="M31.061,70a5.639,5.639,0,0,1-2.7-.707l-8.553-5.08c-1.286-.707-.643-.965-.257-1.093a15.572,15.572,0,0,0,3.859-1.737.592.592,0,0,1,.643.064l6.559,3.923a.817.817,0,0,0,.772,0L57.042,50.515a.739.739,0,0,0,.386-.707V20.161a.739.739,0,0,0-.386-.707L31.383,4.662a.817.817,0,0,0-.772,0L4.952,19.453a.807.807,0,0,0-.386.707V49.807a.807.807,0,0,0,.386.707l7.01,4.051c3.794,1.929,6.174-.322,6.174-2.572V22.733a.782.782,0,0,1,.772-.772h3.28a.782.782,0,0,1,.772.772v29.26c0,5.08-2.765,8.039-7.588,8.039-1.479,0-2.637,0-5.916-1.608L2.7,54.566A5.427,5.427,0,0,1,0,49.871V20.225a5.427,5.427,0,0,1,2.7-4.695L28.36.675a5.739,5.739,0,0,1,5.4,0L59.421,15.531a5.427,5.427,0,0,1,2.7,4.695V49.871a5.427,5.427,0,0,1-2.7,4.694L33.762,69.421a6.582,6.582,0,0,1-2.7.579Zm7.91-20.386C27.717,49.614,25.4,44.47,25.4,40.1a.782.782,0,0,1,.772-.772h3.344a.661.661,0,0,1,.707.643c.514,3.408,1.993,5.08,8.81,5.08,5.4,0,7.717-1.222,7.717-4.116,0-1.672-.643-2.894-9.068-3.73C30.675,36.5,26.3,34.952,26.3,29.357c0-5.209,4.373-8.3,11.7-8.3,8.231,0,12.283,2.83,12.8,9a1.037,1.037,0,0,1-.193.579.794.794,0,0,1-.514.257H46.752a.754.754,0,0,1-.708-.579c-.772-3.537-2.765-4.694-8.039-4.694-5.916,0-6.624,2.058-6.624,3.6,0,1.865.836,2.444,8.81,3.473,7.91,1.029,11.64,2.508,11.64,8.039-.064,5.659-4.694,8.874-12.862,8.874Z" transform="translate(0)"/></svg>