<?xml version="1.0" standalone="no"?>
<!DOCTYPE svg PUBLIC "-//W3C//DTD SVG 20010904//EN"
 "http://www.w3.org/TR/2001/REC-SVG-20010904/DTD/svg10.dtd">
<svg version="1.0" xmlns="http://www.w3.org/2000/svg"
 width="512.000000pt" height="512.000000pt" viewBox="0 0 512.000000 512.000000"
 preserveAspectRatio="xMidYMid meet">
<metadata>
Created by potrace 1.11, written by Peter Selinger 2001-2013
</metadata>
<g transform="translate(0.000000,512.000000) scale(0.100000,-0.100000)"
fill="#000000" stroke="none">
<path d="M0 2560 l0 -2560 2560 0 2560 0 0 2560 0 2560 -2560 0 -2560 0 0
-2560z m2152 735 l3 -704 284 339 285 340 399 0 c247 0 397 -4 395 -9 -1 -6
-160 -189 -353 -407 -192 -218 -363 -412 -378 -430 l-28 -33 433 -519 c238
-285 439 -526 447 -535 13 -16 -12 -17 -412 -17 l-426 0 -323 394 -323 395 -3
-395 -2 -394 -340 0 -340 0 0 1340 0 1340 340 0 340 0 2 -705z m2182 -1355
c190 -72 266 -305 153 -473 -85 -127 -265 -177 -431 -121 -64 22 -148 100
-177 166 -32 74 -33 192 -1 263 29 64 109 138 175 164 73 28 207 28 281 1z"/>
</g>
</svg>
