<svg xmlns="http://www.w3.org/2000/svg" xmlns:xlink="http://www.w3.org/1999/xlink" width="100" height="44.382" viewBox="0 0 100 44.382"><defs><style>.a{fill:#003b57;}.b{fill:#0f80cc;}.c{fill:url(#a);}</style><linearGradient id="a" x1="0.577" y1="0.02" x2="0.577" y2="0.944" gradientUnits="objectBoundingBox"><stop offset="0" stop-color="#97d9f6"/><stop offset="0.92" stop-color="#0f80cc"/><stop offset="1" stop-color="#0f80cc"/></linearGradient></defs><path class="a" d="M175.671,112.044a4.525,4.525,0,0,0-3.247,1.183,4.081,4.081,0,0,0-1.252,3.092,5.081,5.081,0,0,0,.311,1.8,4.558,4.558,0,0,0,.959,1.52,14,14,0,0,0,2.582,1.883,13.089,13.089,0,0,1,3.109,2.358,3,3,0,0,1,.743,1.917,2.713,2.713,0,0,1-.9,2.142,3.518,3.518,0,0,1-2.418.8,3.953,3.953,0,0,1-3.973-4.068h-.492v4.465h.492c.15-.423.358-.639.631-.639a4.054,4.054,0,0,1,.915.259,8.923,8.923,0,0,0,2.867.613,4.7,4.7,0,0,0,4.7-4.7,4.272,4.272,0,0,0-.907-2.677,12.988,12.988,0,0,0-3.515-2.729,11.618,11.618,0,0,1-2.928-2.211,3,3,0,0,1-.682-1.9,2.229,2.229,0,0,1,.82-1.805,3.258,3.258,0,0,1,2.151-.674,3.593,3.593,0,0,1,2.5.9,3.768,3.768,0,0,1,1.157,2.5h.492v-3.869h-.458a1.171,1.171,0,0,1-.156.38.336.336,0,0,1-.268.086,3.308,3.308,0,0,1-.846-.2,7.548,7.548,0,0,0-2.392-.44Zm16.09,0a8.722,8.722,0,0,0-4.43,1.149,8.709,8.709,0,0,0-4.335,7.5,8.268,8.268,0,0,0,2.03,5.493,8.508,8.508,0,0,0,4.871,2.988,7.866,7.866,0,0,1,1.857,1.744,14.622,14.622,0,0,0,2.314,2.28A6.957,6.957,0,0,0,196.1,134.2a8.023,8.023,0,0,0,2.349.328,6.578,6.578,0,0,0,2.746-.544l-.181-.449a4.373,4.373,0,0,1-1.494.251,3.93,3.93,0,0,1-2.159-.708,13.428,13.428,0,0,1-2.7-2.712,9.293,9.293,0,0,0-1.054-1.2,8.526,8.526,0,0,0,5.087-3.006,8.358,8.358,0,0,0,1.986-5.475,8.221,8.221,0,0,0-2.582-6.14,8.763,8.763,0,0,0-6.339-2.5Zm10.044,0,.026.527c1.081,0,1.687.318,1.822.959a7.283,7.283,0,0,1,.078,1.261l-.009,11.651a2.606,2.606,0,0,1-.371,1.667,1.989,1.989,0,0,1-1.226.449l-.026.527h10.778l.276-2.643h-.492a2.111,2.111,0,0,1-.976,1.529,5.966,5.966,0,0,1-2.738.44h-1.019q-1.773,0-2.047-1.287a2.688,2.688,0,0,1-.052-.553l.043-11.78a3.026,3.026,0,0,1,.337-1.736,1.681,1.681,0,0,1,1.243-.484l-.026-.527Zm-9.871.639a5.459,5.459,0,0,1,4.482,2.176,9.372,9.372,0,0,1,1.727,5.976,8.882,8.882,0,0,1-1.745,5.752,5.664,5.664,0,0,1-4.638,2.159,5.422,5.422,0,0,1-4.5-2.228,10.687,10.687,0,0,1,.017-11.651,5.639,5.639,0,0,1,4.655-2.185Zm24.786,2.5a.751.751,0,0,0-.613.268.725.725,0,0,0-.147.656,1.155,1.155,0,0,0,.423.665,1.134,1.134,0,0,0,.734.285.689.689,0,0,0,.587-.285.8.8,0,0,0,.13-.665,1.134,1.134,0,0,0-.406-.656,1.09,1.09,0,0,0-.708-.268Zm7.108,1.788a3.264,3.264,0,0,1-2.9,2.8l.017.492h1.736l-.035,5.821a12.3,12.3,0,0,0,.1,1.995,1.437,1.437,0,0,0,1.58,1.218q1.915,0,4.016-2.332l-.423-.363a4.158,4.158,0,0,1-2.686,1.537c-.48,0-.777-.276-.89-.82a2.092,2.092,0,0,1-.043-.466l.017-6.589h2.651l-.026-.786h-2.617v-2.5Zm10.251,2.194a4.2,4.2,0,0,0-3.627,2.151,6.108,6.108,0,0,0-.855,4.767,4.108,4.108,0,0,0,1.3,2.375,3.714,3.714,0,0,0,2.487.838,4.982,4.982,0,0,0,2.763-.708,6.486,6.486,0,0,0,1.511-2.288l-.371-.389a4.022,4.022,0,0,1-3.359,2.047,2.744,2.744,0,0,1-2.85-2.539,6.167,6.167,0,0,1-.1-.691,8.981,8.981,0,0,0,4.18-1.554c.941-.747,1.887-1.539,1.71-2.375a1.925,1.925,0,0,0-.76-1.183,4.452,4.452,0,0,0-2.03-.449Zm-16.21.061-3.2.734v.57l1.105-.138a.855.855,0,0,1,.95.725,3.9,3.9,0,0,1,.06.674l-.035,5.225c-.009.723-.089,1.143-.25,1.27a2.587,2.587,0,0,1-1.287.19l-.017.492h5.069l-.009-.492a3.531,3.531,0,0,1-1.364-.164.817.817,0,0,1-.4-.6,6.4,6.4,0,0,1-.069-1.105l.017-7.375Zm15.4.967a1.461,1.461,0,0,1,.907.354,1.368,1.368,0,0,1,.535.777c.289,1.389-.942,2.349-3.714,2.884a4.894,4.894,0,0,1,.544-2.763,1.979,1.979,0,0,1,1.727-1.252Z" transform="translate(-137.663 -90.151)"/><path class="b" d="M30.851,9.952H3.351A3.361,3.361,0,0,0,0,13.3V43.63a3.361,3.361,0,0,0,3.351,3.351H21.463c-.206-9.012,2.872-26.5,9.388-37.029Z" transform="translate(0 -8.007)"/><path class="c" d="M33.876,14.955H7.376A2.376,2.376,0,0,0,5,17.329V45.443c6-2.3,15.01-4.291,21.238-4.2a193.4,193.4,0,0,1,7.636-26.287Z" transform="translate(-4.025 -12.033)"/><path class="a" d="M118.065.952c-1.883-1.68-4.164-1-6.414.992-.334.3-.667.626-1,.978-3.85,4.084-7.424,11.65-8.534,17.427a15.913,15.913,0,0,1,.993,2.851c.057.219.108.425.15.6.1.415.15.683.15.683s-.035-.131-.176-.541c-.027-.079-.057-.165-.093-.266-.015-.042-.036-.093-.059-.147-.251-.584-.946-1.816-1.252-2.353-.261.771-.493,1.493-.686,2.146a18.99,18.99,0,0,1,1.421,4.383s-.047-.179-.268-.805a29.824,29.824,0,0,0-1.41-2.674,6.318,6.318,0,0,0-.413,2.7,9.409,9.409,0,0,1,.771,2.165c.522,2.009.885,4.454.885,4.454s.012.162.031.412a40.9,40.9,0,0,0,.1,5.017,17.784,17.784,0,0,0,.914,4.852l.282-.154a21.7,21.7,0,0,1-.749-7.245,55.208,55.208,0,0,1,3.034-15.164c3.146-8.309,7.51-14.975,11.5-18.159-3.641,3.288-8.568,13.931-10.043,17.872A71.455,71.455,0,0,0,103.678,33.5c1.217-3.72,5.152-5.319,5.152-5.319s1.93-2.38,4.185-5.781a41.036,41.036,0,0,0-4.313,1.148c-1.1.46-1.391.617-1.391.617a37.466,37.466,0,0,1,6.6-3.141c4.189-6.6,8.754-15.972,4.157-20.072" transform="translate(-80.8 0)"/></svg>