<svg xmlns="http://www.w3.org/2000/svg" xmlns:xlink="http://www.w3.org/1999/xlink" width="71.784" height="70" viewBox="0 0 71.784 70"><defs><style>.a{fill:url(#a);}.b{fill:#31c5f0;}</style><radialGradient id="a" cx="-436.733" cy="578.947" r="0.094" gradientTransform="translate(-2.599 2.34) scale(0.973 0.973)" gradientUnits="userSpaceOnUse"><stop offset="0" stop-color="#34364e" stop-opacity="0.98"/><stop offset="1" stop-color="#0c0824"/></radialGradient></defs><path class="a" d="M-341.6,493.3h65.814v64.016H-341.6Z" transform="translate(344.592 -490.308)"/><path class="b" d="M-359.408,475.492h65.814v64.016h-65.814ZM-362.4,542.5h71.784v-70H-362.4Zm48.407-41.272c-2.359,0-3.165,1.194-3.165,2.187,0,1.079.532,1.827,3.711,3.467,4.69,2.273,6.157,4.46,6.157,7.653,0,4.79-3.654,7.365-8.588,7.365a12.978,12.978,0,0,1-6.128-1.28c-.216-.086-.245-.245-.245-.475v-4.416c0-.3.144-.388.36-.245a11.152,11.152,0,0,0,6.013,1.769c2.359,0,3.352-.993,3.352-2.33,0-1.079-.69-2.028-3.711-3.6-4.244-2.028-6.013-4.085-6.013-7.538,0-3.855,3.021-7.063,8.257-7.063a13.759,13.759,0,0,1,5.351.834.652.652,0,0,1,.3.6v4.1c0,.245-.144.388-.446.3a10.168,10.168,0,0,0-5.208-1.338Zm-25.721,3.553c.69.058,1.223.058,2.417.058,3.5,0,6.79-1.223,6.79-5.984,0-3.8-2.359-5.711-6.344-5.711-1.194,0-2.33.058-2.877.086l.014,11.552Zm-5.337-15.882c0-.216.417-.36.662-.36,1.913-.086,4.762-.144,7.711-.144,8.286,0,11.523,4.546,11.523,10.343,0,7.6-5.51,10.861-12.271,10.861-1.136,0-1.525-.058-2.33-.058v11.48c0,.245-.086.36-.36.36h-4.575c-.245,0-.36-.086-.36-.36V488.9Z" transform="translate(362.4 -472.5)"/></svg>