<svg xmlns="http://www.w3.org/2000/svg" xmlns:xlink="http://www.w3.org/1999/xlink" width="508.33" height="317" viewBox="0 0 508.33 317"><defs><style>.a{fill:#d4e1f8;}.a,.ax{opacity:0.2;}.b{fill:#e8effa;}.c,.ct,.u,.w{fill:none;}.d{fill:url(#a);}.e{fill:url(#b);}.f{fill:url(#c);}.g{fill:url(#d);}.h{fill:url(#e);}.i{fill:#fff;}.j{fill:url(#f);}.k{fill:url(#g);}.l{fill:url(#h);}.m{fill:url(#i);}.n{fill:url(#j);}.o{fill:url(#l);}.p{fill:url(#m);}.q{clip-path:url(#n);}.r{fill:url(#o);}.an,.ao,.au,.aw,.bt,.s{opacity:0.3;}.t{fill:url(#p);}.u,.w{stroke:#707070;}.at,.au,.u,.w{stroke-linecap:round;}.at,.au,.ax,.co,.ct,.u,.w{stroke-miterlimit:10;}.ct,.u{stroke-width:2px;}.v{fill:url(#q);}.at,.au,.w{stroke-linejoin:round;}.w{opacity:0.473;}.x{clip-path:url(#x);}.y{fill:#dbe5f6;}.z{fill:url(#y);}.aa{fill:url(#z);}.ab{fill:rgba(216,216,216,0.2);}.ac{clip-path:url(#aa);}.ad{fill:#20355f;opacity:0.142;}.ae{clip-path:url(#ac);}.af{fill:url(#ad);}.ag{fill:url(#ae);}.ah{fill:url(#af);}.ai{clip-path:url(#ag);}.aj{clip-path:url(#ai);}.ak{fill:url(#ak);}.al{clip-path:url(#al);}.am,.an{fill:url(#am);}.ao{fill:url(#ao);}.ap{fill:#051d4e;}.aq{clip-path:url(#aq);}.ar{fill:url(#ar);}.as{clip-path:url(#au);}.at,.au,.ax,.co{fill:rgba(0,0,0,0);}.at,.au,.ax{stroke:#1e3159;}.at,.au,.co{stroke-width:3px;}.at{opacity:0.15;}.av{fill:#233a67;opacity:0.1;}.aw{fill:#5679b0;}.ay{clip-path:url(#aw);}.az{fill:#3d82f0;opacity:0.484;}.ba{clip-path:url(#ax);}.bb{opacity:0.328;}.bc{fill:url(#ay);}.bd{fill:url(#az);}.be{fill:url(#ba);}.bf{fill:url(#bb);}.bg{fill:#dfebff;}.bh{clip-path:url(#bc);}.bi,.bn,.cr{opacity:0.6;}.bi{fill:url(#bd);}.bj{fill:url(#be);}.bk,.co{opacity:0.5;}.bk{fill:url(#bf);}.bl{clip-path:url(#bg);}.bm{fill:url(#bh);}.bn{fill:url(#bi);}.bo{fill:url(#bj);}.bp{fill:#a1b8e3;}.bq{fill:url(#bk);}.br{fill:url(#bl);}.bs{clip-path:url(#bm);}.bt{fill:url(#bn);}.bu{fill:#738fc4;}.bv{fill:url(#bo);}.bw{fill:url(#bp);}.bx{fill:url(#bq);}.by{fill:url(#br);}.bz{fill:url(#bs);}.ca{clip-path:url(#bu);}.cb{fill:#a1b8e4;opacity:0.225;}.cc{fill:url(#bv);}.cd{fill:url(#bw);}.ce{fill:#d6e3fa;}.cf{fill:url(#bx);}.cg{fill:url(#by);}.ch{fill:url(#bz);}.ci{fill:url(#ca);}.cj{fill:#ff9600;}.ck{opacity:0.7;fill:url(#cb);}.cl{clip-path:url(#cd);}.cm{clip-path:url(#cf);}.cn{clip-path:url(#ch);}.co{stroke:#489c71;}.cp{clip-path:url(#cj);}.cq{clip-path:url(#cl);}.cs{clip-path:url(#cn);}.ct{stroke:#fff;}</style><linearGradient id="a" x1="0.26" y1="0.846" x2="0.743" y2="0.5" gradientUnits="objectBoundingBox"><stop offset="0" stop-color="#0640a2"/><stop offset="1" stop-color="#3d82f0"/></linearGradient><linearGradient id="b" x1="0.737" y1="0.865" x2="0.403" y2="0.322" xlink:href="#a"/><linearGradient id="c" x1="0.5" x2="0.5" y2="0.443" gradientUnits="objectBoundingBox"><stop offset="0" stop-color="#092989"/><stop offset="1" stop-color="#3378e4"/></linearGradient><linearGradient id="d" x1="1.256" y1="0.744" x2="0.588" y2="0.744" gradientUnits="objectBoundingBox"><stop offset="0" stop-color="#70b8f9"/><stop offset="1" stop-color="#3d82f0"/></linearGradient><linearGradient id="e" x1="0.5" y1="1" x2="0.5" gradientUnits="objectBoundingBox"><stop offset="0" stop-color="#06275a"/><stop offset="1" stop-color="#223762"/></linearGradient><linearGradient id="f" x1="0.5" y1="0.421" x2="0.834" y2="0.643" gradientUnits="objectBoundingBox"><stop offset="0" stop-color="#deeaff"/><stop offset="1" stop-color="#fff"/></linearGradient><linearGradient id="g" x1="1" y1="1" x2="0.232" y2="0.678" gradientUnits="objectBoundingBox"><stop offset="0" stop-color="#acc5e9"/><stop offset="0.627" stop-color="#d3e3fb"/><stop offset="1" stop-color="#eaf2ff"/></linearGradient><linearGradient id="h" x1="0.776" x2="0.403" y2="1.463" gradientUnits="objectBoundingBox"><stop offset="0" stop-color="#86a8d9"/><stop offset="1" stop-color="#bcd0f2"/></linearGradient><linearGradient id="i" x1="0.342" y1="0.05" x2="0.786" y2="1" gradientUnits="objectBoundingBox"><stop offset="0" stop-color="#b1ffbe"/><stop offset="0.444" stop-color="#5cdb8e"/><stop offset="1" stop-color="#149654"/></linearGradient><linearGradient id="j" x1="0.786" y1="-0.093" x2="0.904" y2="0.888" xlink:href="#i"/><radialGradient id="l" cx="0.781" cy="0.237" r="0.854" gradientUnits="objectBoundingBox"><stop offset="0" stop-color="#cbdaf1"/><stop offset="1" stop-color="#7089b9"/></radialGradient><linearGradient id="m" x1="0.5" x2="0.5" y2="1" gradientUnits="objectBoundingBox"><stop offset="0" stop-color="#fff"/><stop offset="1" stop-color="#eaf0fd"/></linearGradient><clipPath id="n"><path class="a" d="M136.505,216.064C71.514,221.5,15.726,196.281,2.757,151.162-13.052,96.168,40.74,32.441,122.9,8.823c66.246-19.043,130.709-6.2,161.485,28.318,48.294,3.135,87.371,26.331,97.912,63,15.027,52.277-33.625,112.143-108.667,133.714a195.531,195.531,0,0,1-53.841,7.769C186.663,241.626,156.985,232.452,136.505,216.064Z"/></clipPath><linearGradient id="o" x1="0.902" y1="1.356" x2="0.406" y2="0.147" gradientUnits="objectBoundingBox"><stop offset="0" stop-color="#e3ecf9"/><stop offset="1" stop-color="#f6f8fe"/></linearGradient><linearGradient id="p" x1="0.683" y1="-0.092" x2="0" y2="0.5" gradientUnits="objectBoundingBox"><stop offset="0" stop-color="#cfddf3"/><stop offset="1" stop-color="#a1b8e3"/></linearGradient><linearGradient id="q" x1="2.276" y1="-0.303" x2="0.5" y2="1" xlink:href="#p"/><clipPath id="x"><path class="b" d="M82.2,29.528c44.841,0,81.191-6.164,81.191-13.767S127.04,1.994,82.2,1.994,1.007,8.158,1.007,15.761,37.358,29.528,82.2,29.528Z" transform="translate(-1.007 -1.994)"/></clipPath><radialGradient id="y" cx="0.962" cy="0.239" r="0.524" gradientUnits="objectBoundingBox"><stop offset="0" stop-color="#3864b1"/><stop offset="1" stop-color="#223762"/></radialGradient><linearGradient id="z" x1="0.538" y1="0.572" x2="0.358" y2="0.243" gradientUnits="objectBoundingBox"><stop offset="0" stop-color="#223762" stop-opacity="0"/><stop offset="1" stop-opacity="0.502"/></linearGradient><clipPath id="aa"><path class="c" d="M30.739,24.716C27.712,23.7,5.311,17.839,2.88,16.258S.056,10.16,0,6.841q0-.029,0-.058C0,3.482,4.214.1,6.421,0S28.186,2.662,35.453,5.28c6.075,2.188,8.891,4.918,8.894,9.743a16.6,16.6,0,0,1-.32,3.095c-1.007,5.3-6.639,6.963-10.523,6.963A9.1,9.1,0,0,1,30.739,24.716Z"/></clipPath><clipPath id="ac"><path class="d" d="M1.559,16.9l12.786,2.462Q22.3,12.89,16.6,4.595A91.7,91.7,0,0,0,4.71,1.427Z" transform="translate(-1.559 -1.427)"/></clipPath><linearGradient id="ad" x1="0.5" y1="1" x2="0.5" gradientUnits="objectBoundingBox"><stop offset="0" stop-color="#70b8f9" stop-opacity="0"/><stop offset="1" stop-color="#3d82f0"/></linearGradient><radialGradient id="ae" cx="0.084" cy="0.106" r="0.524" xlink:href="#y"/><linearGradient id="af" x1="0.536" y1="0.5" x2="0.779" y2="0.604" xlink:href="#z"/><clipPath id="ag"><path class="c" d="M.22,16.8A17.4,17.4,0,0,1,0,14.144C.006,9.037,2.9,6.307,9.237,4.272,16.591,1.909,36.22-.167,38.435.011c2.172.174,6.188,3.606,6.183,6.864q0,.1-.005.194c-.171,3.315-.721,7.815-3.206,9.31S16.33,22.948,13.27,23.861a8.441,8.441,0,0,1-2.316.276C7.068,24.137,1.075,22.352.22,16.8Z"/></clipPath><clipPath id="ai"><path class="e" d="M22.328,17.061,9.465,19.075Q1.74,12.329,7.724,4.238a91.707,91.707,0,0,1,12-2.75Z" transform="translate(-5.112 -1.487)"/></clipPath><linearGradient id="ak" x1="0.5" y1="1.248" x2="0.5" y2="0.266" gradientUnits="objectBoundingBox"><stop offset="0" stop-color="#41679c"/><stop offset="1" stop-color="#89a3d0"/></linearGradient><clipPath id="al"><path class="c" d="M.225,24.726A2.09,2.09,0,0,1,0,23.85c0-3.685,14.794-.761,19.659-6.736,4.14-5.085,5.206-15.1,5.206-15.738q0-3.364,69,1.5,3.4,9.477,7,12.026c11.894,8.438,33.7,8.345,33.695,11.327a1.045,1.045,0,0,1-.343.687c-21.6,23-47.627,31.636-67.135,31.636C43.022,58.548,7.455,40.214.225,24.726Z"/></clipPath><linearGradient id="am" x1="0.5" x2="0.562" y2="1.139" gradientUnits="objectBoundingBox"><stop offset="0" stop-color="#5e7fb1"/><stop offset="1" stop-color="#a1b8e3" stop-opacity="0.188"/></linearGradient><linearGradient id="ao" x1="0.884" y1="0.75" x2="0.619" y2="0.182" xlink:href="#am"/><clipPath id="aq"><path class="f" d="M23.757,10.55c0,3.786.284,5.606-1.7,8.926S9.891,42.793,16.824,51.732,52.248,61.387,53.455,49.6,47.079,22,44.84,17.522a15.99,15.99,0,0,1-.828-11.7C44.84,3.886,23.757,6.764,23.757,10.55Z" transform="translate(-14.436 -5.204)"/></clipPath><linearGradient id="ar" x1="0.73" y1="0.5" x2="0.109" y2="0.636" gradientUnits="objectBoundingBox"><stop offset="0" stop-color="#70b8f9"/><stop offset="1" stop-color="#3d82f0" stop-opacity="0"/></linearGradient><clipPath id="au"><path class="g" d="M23.714,50.04H19.961c-6.716,0-14.483-6.8-15.171-15.179l-1.477-18A13.774,13.774,0,0,1,17.249,1.678H26.78A13.774,13.774,0,0,1,40.714,16.857l-1.477,18C38.551,43.232,30.453,50.021,23.714,50.04Z" transform="translate(-3.263 -1.678)"/></clipPath><clipPath id="aw"><path class="h" d="M17.8,15.781l.237,5.538a2.824,2.824,0,0,0,2.821,2.7H40.093A2.824,2.824,0,0,0,42.917,21.2v-5.77c.973,2.321,4.165,17.847,4.165,26.63s1.649,22.678,1.835,26.137,12.814,10.763,15,8.471-6.411-38.431-8.715-51.8S44.813-.554,28.618.02,6.336,17.682,5.262,26.138-1.55,73.762.4,76.666s13.862-5.36,13.862-8.471V42.058C14.263,33.275,17.8,15.781,17.8,15.781Z" transform="translate(0 0)"/></clipPath><clipPath id="ax"><path class="i" d="M9.672,23.048c0,7.973,6.575,13.087,16.882,13.087S43.3,31.591,43.829,22.888q4.966,13.087,2.793,81.737A37.235,37.235,0,0,1,28.76,109.07c-8.959-.15-18.658-3.774-21.133-8.9S9.672,15.074,9.672,23.048Z" transform="translate(-6.887 -22.489)"/></clipPath><linearGradient id="ay" x1="-0.098" y1="0.432" x2="0.757" y2="0.906" gradientUnits="objectBoundingBox"><stop offset="0" stop-color="#e9f2fe"/><stop offset="1" stop-color="#bcd3f8"/></linearGradient><linearGradient id="az" x1="0.5" y1="0.535" x2="0.782" y2="0.864" gradientUnits="objectBoundingBox"><stop offset="0" stop-color="#fff" stop-opacity="0"/><stop offset="1" stop-color="#003ba0"/></linearGradient><linearGradient id="ba" x1="0.902" y1="0.561" x2="0.269" y2="0.4" gradientUnits="objectBoundingBox"><stop offset="0" stop-color="#3158b2"/><stop offset="1" stop-color="#3d82f0"/></linearGradient><linearGradient id="bb" x1="0.105" y1="0.608" x2="0.669" y2="0.369" xlink:href="#ba"/><clipPath id="bc"><path class="c" d="M40.3,131.009c-2.983-1.2-4.534-6.468-4.53-13.125a52.265,52.265,0,0,1,1.6-12.47c2.926-11.645,4.046-21.7,4.046-26.206,0-2.3.318-7.273.319-10.776,0-3.362-.292-5.369-1.438-2.36-2.341,6.143-5.253,19.211-9.288,24.808S20.863,93.8,12.756,93.8c-3.247-9.87-9.6-8.818-12.271-7.09L0,87.057a5.15,5.15,0,0,1,.485-.352c6.87-4.8,14.2-12.3,15.39-13.415C17.1,72.148,28.756,25.759,32.934,20.874S62.912,2.419,65.657,0c-.1,1.21-1.832,3.993-1.834,6.888,0,2.929,1.767,5.972,8.79,7.615-6.655,6.309-8.282,12.149-8.285,17.5,0,4.115.956,7.944,1.329,11.479a52.231,52.231,0,0,1,.24,5.383c0,7.855-1.1,18.06-1.1,27.851v.639c0,11.783.015,17.347.858,34.871.669,13.918,4.278,19.324,4.277,22.576a3.138,3.138,0,0,1-1.006,2.377,4.507,4.507,0,0,1-3.11.807C58.956,137.989,44.2,132.576,40.3,131.009ZM.485,86.705Z"/></clipPath><linearGradient id="bd" x1="0.587" y1="0.5" x2="0.401" y2="1.267" gradientUnits="objectBoundingBox"><stop offset="0" stop-color="#82adf6"/><stop offset="1" stop-color="#adbad1" stop-opacity="0"/></linearGradient><linearGradient id="be" y1="0.842" x2="1" y2="0.11" gradientUnits="objectBoundingBox"><stop offset="0" stop-color="#a9bfe4"/><stop offset="1" stop-color="#a9c1e8" stop-opacity="0.094"/></linearGradient><linearGradient id="bf" x1="1" y1="0.11" x2="0" y2="0.842" xlink:href="#be"/><clipPath id="bg"><path class="c" d="M16.288,131.474s-4.447-15.08-4.5-23.246c-.039-6.315-2.071-31.211-2.711-38.951C7.624,51.682,6.319,49.1,6.318,45.846a14.051,14.051,0,0,1,.084-1.5c.395-3.742,1.562-7.9,1.562-12.379,0-5.263-1.608-10.976-7.964-17,6.968-1.63,8.774-4.762,8.775-7.79S6.961,1.2,6.725,0C9.47,2.419,35.5,16.454,39.68,21.339s16.856,54.7,18.078,55.845S78.5,83.912,83.68,85.592a6.04,6.04,0,0,0-5.727,6.094A12.119,12.119,0,0,0,79.2,96.639c.23.069.339.148.339.234,0,1.47-32.012,5.054-35.825-.234-4.036-5.6-9.065-23.959-11.407-30.1-.781-2.049-1.041-2.048-1.041-.97,0,2.155,1.041,8.615,1.041,11.617v.135c0,4.661.029,19.411,2.926,28.559a39.168,39.168,0,0,1,1.6,11.409c0,6.755-1.547,12.986-4.53,14.187-2.891,1.164-8.264,3.267-11.986,3.268C17.977,134.741,16.288,133.906,16.288,131.474Z"/></clipPath><linearGradient id="bh" x1="1.152" y1="0.126" x2="0" y2="0.648" xlink:href="#be"/><linearGradient id="bi" x1="0.413" x2="0.599" y2="1.267" xlink:href="#bd"/><linearGradient id="bj" y1="0.648" x2="0.433" y2="0.396" xlink:href="#be"/><linearGradient id="bk" x1="0.352" y1="0.603" x2="0.441" y2="0.892" gradientUnits="objectBoundingBox"><stop offset="0" stop-color="#b2c7ee" stop-opacity="0"/><stop offset="1" stop-color="#1f54a6"/></linearGradient><linearGradient id="bl" x1="1" y1="0.305" x2="0.682" y2="0.339" gradientUnits="objectBoundingBox"><stop offset="0" stop-color="#fff" stop-opacity="0.502"/><stop offset="1" stop-color="#b2c7ee" stop-opacity="0"/></linearGradient><clipPath id="bm"><path class="c" d="M0,67.775A7.8,7.8,0,0,1,2.016,62.3C7.539,56.493,64.442,12.42,75.982,6.8S104.634-4.38,110.321,5.18a13.89,13.89,0,0,1,2.138,7.208c-.007,6.927-5.832,13.873-15.45,22.526C84.083,46.544,21.516,74.02,12.31,77.837a8.308,8.308,0,0,1-3.2.667C3.82,78.505,0,72.864,0,67.775Z"/></clipPath><linearGradient id="bn" x1="0.143" y1="0.725" x2="0.611" y2="0.5" gradientUnits="objectBoundingBox"><stop offset="0" stop-color="#a1b8e3" stop-opacity="0.235"/><stop offset="1" stop-color="#002b6f"/></linearGradient><linearGradient id="bo" x1="0.364" y1="0.442" x2="0.163" y2="0.726" xlink:href="#bk"/><linearGradient id="bp" x1="0.384" y1="0.027" x2="0.384" y2="0.424" xlink:href="#bl"/><linearGradient id="bq" x1="0.809" y1="0.64" x2="0.827" y2="1.033" gradientUnits="objectBoundingBox"><stop offset="0" stop-color="#a1b8e3" stop-opacity="0"/><stop offset="1" stop-color="#1c2f84" stop-opacity="0.502"/></linearGradient><linearGradient id="br" x1="0.632" y1="0.352" x2="0.522" y2="0.631" gradientUnits="objectBoundingBox"><stop offset="0" stop-color="#fff" stop-opacity="0.502"/><stop offset="1" stop-color="#a1b8e3" stop-opacity="0"/></linearGradient><linearGradient id="bs" y1="0.387" x2="0" y2="0.5" xlink:href="#f"/><clipPath id="bu"><path class="j" d="M8.305,1.885c5.177,4.07,6,11.844,5.484,15.475q-.515,3.631-4.263,13.215Q7.1,21.283,1.213,16.461C5.784,14.73,10.871,11.469,8.305,1.885Z" transform="translate(-1.213 -1.885)"/></clipPath><linearGradient id="bv" y1="0.5" x2="0.347" y2="0.932" gradientUnits="objectBoundingBox"><stop offset="0" stop-color="#47689b"/><stop offset="1" stop-color="#223762"/></linearGradient><linearGradient id="bw" x1="1" x2="0.105" y2="1" gradientUnits="objectBoundingBox"><stop offset="0" stop-color="#cfddf3"/><stop offset="0.474" stop-color="#b3c7e9"/><stop offset="1" stop-color="#728fc5"/></linearGradient><linearGradient id="bx" x1="0.229" y1="1" x2="0.64" y2="0.5" gradientUnits="objectBoundingBox"><stop offset="0" stop-color="#acc1e3"/><stop offset="1" stop-color="#d6e3fa"/></linearGradient><linearGradient id="by" x1="0.229" x2="0.737" y2="0.581" xlink:href="#bx"/><linearGradient id="bz" x1="0.079" y1="0.227" x2="0.64" xlink:href="#bx"/><linearGradient id="ca" x1="0.642" x2="0.408" y2="0.627" gradientUnits="objectBoundingBox"><stop offset="0" stop-color="#ff9d61"/><stop offset="1" stop-color="#ffd873"/></linearGradient><linearGradient id="cb" x1="1" y1="0.5" x2="0" y2="0.5" gradientUnits="objectBoundingBox"><stop offset="0" stop-color="#d9e5f6" stop-opacity="0.714"/><stop offset="1" stop-color="#b2c6ea"/></linearGradient><clipPath id="cd"><path class="k" d="M49.347,2.483a18.509,18.509,0,0,1,2.486,9.224c0,11.8-11.379,21.357-25.416,21.357S1,23.5,1,11.707A18.576,18.576,0,0,1,3.772,2C15.031,3.781,37.442,3.667,49.347,2.483Z" transform="translate(-1 -1.999)"/></clipPath><clipPath id="cf"><path class="l" d="M25.122,1c12.77,0,23.122,2.45,23.122,5.472s-10.352,5.472-23.122,5.472S2,9.494,2,6.472,12.352,1,25.122,1Z" transform="translate(-2 -1)"/></clipPath><clipPath id="ch"><path class="m" d="M23.239,65.6C21.977,56.862,18.5,44.244,8.06,30.652,1.909,22.646,1.889,3.15,1,1,5.827,2.66,14.5,6.939,23.239,19,32.4,31.65,26.59,57.443,23.239,65.6Z" transform="translate(-1 -1)"/></clipPath><clipPath id="cj"><path class="n" d="M40.205,43.635A61.669,61.669,0,0,0,16.874,22.083C9.489,18.044,2.92,3.183,1.519,1.842c4.241-.356,12.3-.006,23.022,6.258C35.785,14.666,40.019,36.288,40.205,43.635Z" transform="translate(-1.519 -1.746)"/></clipPath><clipPath id="cl"><path class="m" d="M3.724,48.415A61.856,61.856,0,0,1,24.167,23.946C31,18.972,35.614,3.327,36.835,1.811c-4.271.193-12.249,1.58-22.12,9.2C4.368,19,2.956,41.076,3.724,48.415Z" transform="translate(-3.548 -1.811)"/></clipPath><clipPath id="cn"><path class="o" d="M23.886,1A21.886,21.886,0,1,1,2,22.886,21.886,21.886,0,0,1,23.886,1Z" transform="translate(-2 -1)"/></clipPath></defs><g transform="translate(0 -33)"><rect class="p" width="508.33" height="120.728" transform="translate(0 229.272)"/><g transform="translate(51.918 36.722)"><path class="a" d="M136.505,216.064C71.514,221.5,15.726,196.281,2.757,151.162-13.052,96.168,40.74,32.441,122.9,8.823c66.246-19.043,130.709-6.2,161.485,28.318,48.294,3.135,87.371,26.331,97.912,63,15.027,52.277-33.625,112.143-108.667,133.714a195.531,195.531,0,0,1-53.841,7.769C186.663,241.626,156.985,232.452,136.505,216.064Z" transform="translate(0 0)"/><g class="q" transform="translate(0 0)"><path class="r" d="M71.083,55.112c-.464-13.3-35.12-10.3-48.488-9.02S8.013,29.154,19.547,26.446,52,25.135,62.836,22.635,59.964,6.726,74.731,5.11s45.3-.12,54.4-.448c14.3-.516,21.633,16.7-3.416,17.478-6.908.215-8.293,15.507,15.023,11.306,14.632-2.636,43.341-2.7,49.313,4.033,3.427,3.861,2.239,14.235-3.652,19.963-4.376,4.255-18.293,5.085-23.745,6.069-12.79,2.308-10.262,14.692-5.9,17.242,10.32,6.034,38.644-5.354,39.4,11.215.336,7.322-25.436,8.5-36,8.414-25.917-.219-42.945,2.09-44.14-6.751-1.2-8.875,16.1-2.885,15.252-13.8-.446-5.7.749-17.817-10.353-17.181C136.115,61.783,71.71,73.076,71.083,55.112Z" transform="translate(154.105 3.352)"/><g class="s" transform="translate(177.93 195.643) rotate(149)"><path class="t" d="M13.552,128.873c3.342,2.957,16.053-2.957,21.092-12.136S30.335,104.291,43.05,89.61s20.874-20.3,13.158-44.5S59.151,7.461,45.066,1.148s-22.2,14.64-20.581,33.07S22.8,56.468,9.019,54.558,6.858,79.706,6.858,85.612-1.5,102.488.237,110.742,10.21,125.917,13.552,128.873Z" transform="translate(59.209 150.106) rotate(180)"/><path class="u" d="M7.375,27.259C7.375,22.726,6.23,8.6,0,0" transform="translate(44.985 74.221) rotate(180)"/><path class="u" d="M0,16.317C0,11.784,12.727,8.6,18.956,0" transform="translate(27.871 89.73) rotate(180)"/><path class="u" d="M0,118c0-1.929,3.321-10.623,6.5-20.7C16.434,65.759,32.454,26.916,32.454,0" transform="translate(53.163 117.999) rotate(180)"/></g><g class="s" transform="matrix(1, -0.017, 0.017, 1, 267.365, 128.057)"><path class="u" d="M0,82.6C0,68.327,11.929,24.165,28.031,0" transform="translate(16.211 26.757)"/><ellipse class="v" cx="4.138" cy="12.986" rx="4.138" ry="12.986" transform="translate(20.216 13.052) rotate(-30)"/><ellipse class="v" cx="4.138" cy="12.986" rx="4.138" ry="12.986" transform="matrix(0.035, 0.999, -0.999, 0.035, 66.722, 30.89)"/><ellipse class="v" cx="4.138" cy="12.986" rx="4.138" ry="12.986" transform="matrix(-0.017, 1, -1, -0.017, 59.239, 50.405)"/><ellipse class="v" cx="4.138" cy="12.986" rx="4.138" ry="12.986" transform="matrix(-0.017, 1, -1, -0.017, 52.959, 68.672)"/><ellipse class="v" cx="4.138" cy="12.986" rx="4.138" ry="12.986" transform="matrix(0.839, 0.545, -0.545, 0.839, 56.281, 0)"/><ellipse class="v" cx="4.138" cy="12.986" rx="4.138" ry="12.986" transform="translate(8.383 35.071) rotate(-41)"/><ellipse class="v" cx="4.138" cy="12.986" rx="4.138" ry="12.986" transform="translate(0 56.306) rotate(-47)"/></g><path class="w" d="M0,27.418,35.831,0" transform="translate(118.761 36.461)"/><path class="w" d="M0,21.626,28.262,0" transform="translate(119.114 56.02)"/><path class="w" d="M0,27.418,35.831,0" transform="translate(270.907 92.942)"/><path class="w" d="M0,21.626,28.262,0" transform="translate(271.26 112.501)"/></g></g><g transform="translate(170.877 50.182)"><g transform="translate(4.217 203.092)"><path class="b" d="M82.2,29.528c44.841,0,81.191-6.164,81.191-13.767S127.04,1.994,82.2,1.994,1.007,8.158,1.007,15.761,37.358,29.528,82.2,29.528Z" transform="translate(-1.007 -1.994)"/><g class="x" transform="translate(0 0)"><path class="y" d="M48.276,37.85c1.757.434,9.079-3.7,10.865-3.505,8.5.912,14.925-1.906,22.5-3.884C94.9,27,108.7,18.594,108.7,13.121,108.7,3.859,83.652,0,54.75,0S0,2.267,0,11.528C0,17.9,13.244,24.615,28.265,30.461,35.065,33.108,40.569,35.947,48.276,37.85Z" transform="translate(28.253 -18.003)"/></g></g><g transform="translate(116.069 217.139)"><g transform="translate(0 0)"><path class="z" d="M4.74,18.046C7.172,19.627,29.573,25.486,32.6,26.5s11.991.229,13.288-6.6S44.581,9.686,37.314,7.068,10.5,1.69,8.282,1.79,1.806,5.31,1.861,8.629,2.309,16.464,4.74,18.046Z" transform="translate(-1.861 -1.788)"/><path class="aa" d="M4.74,18.046C7.172,19.627,29.573,25.486,32.6,26.5s11.991.229,13.288-6.6S44.581,9.686,37.314,7.068,10.5,1.69,8.282,1.79,1.806,5.31,1.861,8.629,2.309,16.464,4.74,18.046Z" transform="translate(-1.861 -1.788)"/><path class="ab" d="M4.74,18.046C7.172,19.627,29.573,25.486,32.6,26.5s11.991.229,13.288-6.6S44.581,9.686,37.314,7.068,10.5,1.69,8.282,1.79,1.806,5.31,1.861,8.629,2.309,16.464,4.74,18.046Z" transform="translate(-1.861 -1.788)"/></g><g class="ac" transform="translate(0 0)"><path class="ad" d="M3.837,24.169C9.119,22.247,30.494,12.2,30.494,7.567S4.047-3.336,1.82,2.116-1.446,26.092,3.837,24.169Z" transform="translate(1.046 -3.146)"/></g></g><g transform="translate(111.373 215.953)"><path class="d" d="M1.559,16.9l12.786,2.462Q22.3,12.89,16.6,4.595A91.7,91.7,0,0,0,4.71,1.427Z" transform="translate(-1.559 -1.427)"/><g class="ae" transform="translate(0 0)"><path class="af" d="M14.492,0a34.475,34.475,0,0,1,.29,15.587C12.909,23.713,0,9.608,0,9.608Z" transform="translate(-5.276 3.35)"/></g></g><g transform="translate(18.315 217.227)"><g transform="translate(0 0)"><path class="ag" d="M45.351,18.415c-2.485,1.5-25.077,6.569-28.138,7.481s-11.992-.189-13.05-7.058S5.827,8.67,13.181,6.307s26.983-4.439,29.2-4.261S48.728,5.789,48.557,9.1,47.836,16.92,45.351,18.415Z" transform="translate(-3.944 -2.035)"/><path class="ah" d="M45.351,18.415c-2.485,1.5-25.077,6.569-28.138,7.481s-11.992-.189-13.05-7.058S5.827,8.67,13.181,6.307s26.983-4.439,29.2-4.261S48.728,5.789,48.557,9.1,47.836,16.92,45.351,18.415Z" transform="translate(-3.944 -2.035)"/><path class="ab" d="M45.351,18.415c-2.485,1.5-25.077,6.569-28.138,7.481s-11.992-.189-13.05-7.058S5.827,8.67,13.181,6.307s26.983-4.439,29.2-4.261S48.728,5.789,48.557,9.1,47.836,16.92,45.351,18.415Z" transform="translate(-3.944 -2.035)"/></g><g class="ai" transform="translate(0 0)"><path class="ad" d="M0,8.714S21.23,28.643,28.48,26.028,34.069,0,26.545,0,0,8.714,0,8.714Z" transform="translate(11.896 -5.803)"/></g></g><g transform="translate(50.145 216.327)"><path class="e" d="M22.328,17.061,9.465,19.075Q1.74,12.329,7.724,4.238a91.707,91.707,0,0,1,12-2.75Z" transform="translate(-5.112 -1.487)"/><g class="aj" transform="translate(0 0)"><path class="af" d="M0,14.985V1.145C0-2.263,16.26,7.879,16.26,7.879s-6.826,6-9.922,7.106A10.723,10.723,0,0,1,0,14.985Z" transform="translate(6.127 4.827)"/></g></g><g transform="translate(20.795 159.666)"><g transform="translate(0 0)"><path class="ak" d="M32.832,5.353c0,.637-1.066,10.654-5.205,15.738-5.205,6.393-21.775,2.6-19.434,7.612,7.23,15.487,42.8,33.821,66.856,33.821,19.508,0,45.539-8.64,67.135-31.635,3.5-3.726-20.611-2.976-33.351-12.014q-3.593-2.549-7-12.027Q32.832,1.99,32.832,5.353Z" transform="translate(-7.968 -3.977)"/><path class="c" d="M32.832,5.353c0,.637-1.066,10.654-5.205,15.738-5.205,6.393-21.775,2.6-19.434,7.612,7.23,15.487,42.8,33.821,66.856,33.821,19.508,0,45.539-8.64,67.135-31.635,3.5-3.726-20.611-2.976-33.351-12.014q-3.593-2.549-7-12.027Q32.832,1.99,32.832,5.353Z" transform="translate(-7.968 -3.977)"/></g><g class="al" transform="translate(0 0)"><path class="am" d="M2.329,10.964C6.2,13.142,29.555,18.9,35,7.767s-32.671-4-32.671-4S-1.541,8.787,2.329,10.964Z" transform="translate(46.139 5.055)"/><path class="an" d="M0,21.489C0,15.743,2.37,9.264,8.905,2.074s12.14,19.415,12.14,19.415S0,27.235,0,21.489Z" transform="translate(69.918 11.833)"/><path class="ao" d="M-38.572,21.489c0-5.746-2.37-12.225-8.905-19.415s-12.14,19.415-12.14,19.415S-38.572,27.235-38.572,21.489Z" transform="translate(100.235 11.833)"/></g></g><path class="ap" d="M41.772,26.742H1.883V1.678h39.89Z" transform="translate(59.125 40.331)"/><g transform="translate(61.909 51.02)"><path class="f" d="M23.757,10.55c0,3.786.284,5.606-1.7,8.926S9.891,42.793,16.824,51.732,52.248,61.387,53.455,49.6,47.079,22,44.84,17.522a15.99,15.99,0,0,1-.828-11.7C44.84,3.886,23.757,6.764,23.757,10.55Z" transform="translate(-14.436 -5.204)"/><g class="aq" transform="translate(0 0)"><path class="ar" d="M1.575,24.874C7.541,15.3,9.49,10.19,9.49,2.232S20.5,24.874,20.5,24.874-4.391,34.452,1.575,24.874Z" transform="translate(19.571 26.082)"/><path class="af" d="M0,4.2S22.707,22.4,26.3,22.4,21.058,0,21.058,0Z" transform="translate(9.176 1.978)"/></g></g><g transform="translate(61.141 11.298)"><path class="g" d="M23.714,50.04H19.961c-6.716,0-14.483-6.8-15.171-15.179l-1.477-18A13.774,13.774,0,0,1,17.249,1.678H26.78A13.774,13.774,0,0,1,40.714,16.857l-1.477,18C38.551,43.232,30.453,50.021,23.714,50.04Z" transform="translate(-3.263 -1.678)"/><g class="as" transform="translate(0 0)"><path class="at" d="M3,3c1.412.883,3.707,2.648,7.413.353" transform="translate(4.32 21.118)"/><path class="au" d="M3,3a12.624,12.624,0,0,0,7.413,0" transform="translate(12.44 37.356)"/><path class="at" d="M3,3c1.412.883,3.707,2.648,7.413.353" transform="translate(19.853 21.118)"/><path class="av" d="M2.864,14.829c.644-.3,2.471.706,2.471.706S6.8,14.859,6.747,13.77s.6-8.958.706-9.884S8.9,12.659,8.865,13.064s1.412,2.118,1.412,2.118-2.751,1.768-3.53,1.765S2.22,15.13,2.864,14.829Z" transform="translate(12.222 20.232)"/><path class="aw" d="M5.539,0s-.9,23.953,2.667,29.729,2.824,9.282,2.824,9.282L0,29.729Z" transform="translate(-0.877 8.709)"/><path class="ax" d="M2,2.353c.747.25,1.431.173,2.118.706a3.3,3.3,0,0,0,2.118.706C6.868,3.752,7.345,2.8,8,2.706S9.533,2.466,9.766,2" transform="translate(13.087 33.414)"/></g></g><g transform="translate(49.155 0)"><path class="h" d="M17.8,15.781l.237,5.538a2.824,2.824,0,0,0,2.821,2.7H40.093A2.824,2.824,0,0,0,42.917,21.2v-5.77c.973,2.321,4.165,17.847,4.165,26.63s1.649,22.678,1.835,26.137,12.814,10.763,15,8.471-6.411-38.431-8.715-51.8S44.813-.554,28.618.02,6.336,17.682,5.262,26.138-1.55,73.762.4,76.666s13.862-5.36,13.862-8.471V42.058C14.263,33.275,17.8,15.781,17.8,15.781Z" transform="translate(0 0)"/><g class="ay" transform="translate(0)"><ellipse class="az" cx="19.062" cy="7.59" rx="19.062" ry="7.59" transform="translate(11.541 -7.651)"/></g></g><g transform="translate(62.774 86.775)"><path class="i" d="M9.672,23.048c0,7.973,6.575,13.087,16.882,13.087S43.3,31.591,43.829,22.888q4.966,13.087,2.793,81.737A37.235,37.235,0,0,1,28.76,109.07c-8.959-.15-18.658-3.774-21.133-8.9S9.672,15.074,9.672,23.048Z" transform="translate(-6.887 -22.489)"/><g class="ba" transform="translate(0 0)"><g class="bb" transform="translate(5.641 23.651)"><path class="bc" d="M26.987,1.1c-2.7,9.955-9.251,21.925-15.78,26.44s5.8,7.647,3.956,10.113A117.579,117.579,0,0,1,2.365,50.81c-3.929,3.246,0,13.426,0,13.426s34.267,12.8,36.068,0S29.686-8.851,26.987,1.1Z" transform="translate(-0.618 0)"/><path class="bd" d="M26.987,1.1c-2.7,9.955-9.251,21.925-15.78,26.44s5.8,7.647,3.956,10.113A117.579,117.579,0,0,1,2.365,50.81c-3.929,3.246,0,13.426,0,13.426s34.267,12.8,36.068,0S29.686-8.851,26.987,1.1Z" transform="translate(-0.618 0)"/></g></g></g><path class="be" d="M11.321,10.112C6.843,13.933,5.133,15.141,4.2,18.593S7.34,31.971,12.754,36.408s6.282-2.122,6.229-2.122-2.929-9.734-2-12.242,3.871-4.317,4.475-5.988S15.8,6.29,11.321,10.112Z" transform="translate(-4.061 137.55)"/><path class="bf" d="M13.241,10.112c4.478,3.822,6.188,5.029,7.126,8.481s-3.145,13.378-8.559,17.815-6.282-2.122-6.229-2.122,2.929-9.734,2-12.242S3.708,17.727,3.1,16.055,8.763,6.29,13.241,10.112Z" transform="translate(156.144 137.55)"/><g transform="translate(5.266 61.846)"><g transform="translate(0 0)"><path class="bg" d="M2.462,88.576c6.87-4.8,14.2-12.3,15.39-13.414C19.074,74.02,30.733,27.63,34.911,22.745S64.889,4.29,67.634,1.871c-.2,2.433-7.008,11.236,6.956,14.5-11.77,11.158-7.814,20.847-6.956,28.982s-.858,21.007-.858,33.234,0,17.672.858,35.509,6.543,21.694,3.272,24.953S47,134.778,42.282,132.88s-5.853-13.95-2.927-25.6S43.4,85.583,43.4,81.079s1.222-19.28-1.12-13.136-5.253,19.211-9.289,24.808-10.152,2.915-18.26,2.915c-3.247-9.87-9.6-8.817-12.271-7.09l-.485.352A5.191,5.191,0,0,1,2.462,88.576Z" transform="translate(-1.977 -1.871)"/><path class="c" d="M2.462,88.576c6.87-4.8,14.2-12.3,15.39-13.414C19.074,74.02,30.733,27.63,34.911,22.745S64.889,4.29,67.634,1.871c-.2,2.433-7.008,11.236,6.956,14.5-11.77,11.158-7.814,20.847-6.956,28.982s-.858,21.007-.858,33.234,0,17.672.858,35.509,6.543,21.694,3.272,24.953S47,134.778,42.282,132.88s-5.853-13.95-2.927-25.6S43.4,85.583,43.4,81.079s1.222-19.28-1.12-13.136-5.253,19.211-9.289,24.808-10.152,2.915-18.26,2.915c-3.247-9.87-9.6-8.817-12.271-7.09l-.485.352A5.191,5.191,0,0,1,2.462,88.576Z" transform="translate(-1.977 -1.871)"/></g><g class="bh" transform="translate(0 0)"><g transform="translate(3.538 14.166)"><circle class="i" cx="1.765" cy="1.765" r="1.765" transform="translate(20.474 55.069)"/><circle class="i" cx="1.765" cy="1.765" r="1.765" transform="translate(27.888 44.126)"/><circle class="i" cx="1.765" cy="1.765" r="1.765" transform="translate(32.477 26.475)"/><circle class="i" cx="1.765" cy="1.765" r="1.765" transform="translate(40.243 32.83)"/><circle class="i" cx="1.765" cy="1.765" r="1.765" transform="translate(52.245 33.183)"/><circle class="i" cx="1.765" cy="1.765" r="1.765" transform="translate(51.186 20.121)"/><circle class="i" cx="1.765" cy="1.765" r="1.765" transform="translate(39.184 12.708)"/><circle class="i" cx="1.765" cy="1.765" r="1.765" transform="translate(54.01 7.766)"/><circle class="i" cx="1.765" cy="1.765" r="1.765" transform="translate(45.185)"/><circle class="i" cx="1.765" cy="1.765" r="1.765" transform="translate(30.712 1.765)"/><circle class="i" cx="1.765" cy="1.765" r="1.765" transform="translate(27.535 14.12)"/><circle class="i" cx="1.765" cy="1.765" r="1.765" transform="translate(20.474 22.239)"/><circle class="i" cx="1.765" cy="1.765" r="1.765" transform="translate(20.474 34.595)"/><circle class="i" cx="1.765" cy="1.765" r="1.765" transform="translate(13.414 46.597)"/><circle class="i" cx="1.765" cy="1.765" r="1.765" transform="translate(11.296 66.012)"/><circle class="i" cx="1.765" cy="1.765" r="1.765" transform="translate(0 66.718)"/><circle class="i" cx="1.765" cy="1.765" r="1.765" transform="translate(12.002 74.131)"/><circle class="i" cx="1.765" cy="1.765" r="1.765" transform="translate(24.357 68.483)"/><circle class="i" cx="1.765" cy="1.765" r="1.765" transform="translate(52.245 47.303)"/><circle class="i" cx="1.765" cy="1.765" r="1.765" transform="translate(39.89 44.832)"/><circle class="i" cx="1.765" cy="1.765" r="1.765" transform="translate(44.479 62.129)"/><circle class="i" cx="1.765" cy="1.765" r="1.765" transform="translate(55.775 60.717)"/><circle class="i" cx="1.765" cy="1.765" r="1.765" transform="translate(55.775 79.426)"/><circle class="i" cx="1.765" cy="1.765" r="1.765" transform="translate(40.596 81.545)"/><circle class="i" cx="1.765" cy="1.765" r="1.765" transform="translate(47.303 72.013)"/><circle class="i" cx="1.765" cy="1.765" r="1.765" transform="translate(52.951 92.135)"/></g><path class="bi" d="M-73.829,23.874c-15.26,0-25.168,7.017-29.427,0S-73.829,0-73.829,0-58.569,23.874-73.829,23.874Z" transform="translate(138.772 -13.484)"/><path class="bj" d="M12.39,44.442C7.9,26.791,10.219,5.979,6.477,1.2S4.55,17.67,4.55,17.67L0,39.345S16.88,62.092,12.39,44.442Z" transform="translate(35.824 63.833)"/><path class="bk" d="M26.979.99C21.114,6.458,18.534,16.4,15.311,19.2S0,28.282,0,28.282L20.346,32.22S32.844-4.477,26.979.99Z" transform="translate(13.201 65.418)"/></g></g><g transform="translate(84.825 61.381)"><g transform="translate(0 0)"><path class="bg" d="M8.078,1.554c2.745,2.419,28.776,16.454,32.954,21.339S57.888,77.6,59.111,78.738s20.738,6.728,25.922,8.408c-2,0-8.4,2.415-4.478,11.048,4.17,1.255-31.451,5.6-35.487,0S36,74.234,33.661,68.091s0,6.144,0,10.648,0,19.455,2.927,28.694,1.787,23.7-2.927,25.6-16.021,6.292-16.021,0c0,0-4.447-15.08-4.5-23.246-.04-6.315-2.071-31.211-2.711-38.951C8.767,50.7,7.3,50.226,7.754,45.9c.858-8.135,5.368-18.223-6.4-29.381C15.317,13.256,8.548,3.957,8.078,1.554Z" transform="translate(-1.353 -1.554)"/><path class="c" d="M8.078,1.554c2.745,2.419,28.776,16.454,32.954,21.339S57.888,77.6,59.111,78.738s20.738,6.728,25.922,8.408c-2,0-8.4,2.415-4.478,11.048,4.17,1.255-31.451,5.6-35.487,0S36,74.234,33.661,68.091s0,6.144,0,10.648,0,19.455,2.927,28.694,1.787,23.7-2.927,25.6-16.021,6.292-16.021,0c0,0-4.447-15.08-4.5-23.246-.04-6.315-2.071-31.211-2.711-38.951C8.767,50.7,7.3,50.226,7.754,45.9c.858-8.135,5.368-18.223-6.4-29.381C15.317,13.256,8.548,3.957,8.078,1.554Z" transform="translate(-1.353 -1.554)"/></g><g class="bl" transform="translate(0 0)"><g transform="translate(9.76 15.69)"><circle class="i" cx="1.765" cy="1.765" r="1.765" transform="translate(8.472 1.059)"/><circle class="i" cx="1.765" cy="1.765" r="1.765" transform="translate(23.298)"/><circle class="i" cx="1.765" cy="1.765" r="1.765" transform="translate(27.182 13.414)"/><circle class="i" cx="1.765" cy="1.765" r="1.765" transform="translate(15.532 13.414)"/><circle class="i" cx="1.765" cy="1.765" r="1.765" transform="translate(0 9.531)"/><circle class="i" cx="1.765" cy="1.765" r="1.765" transform="translate(4.236 21.886)"/><circle class="i" cx="1.765" cy="1.765" r="1.765" transform="translate(22.945 26.475)"/><circle class="i" cx="1.765" cy="1.765" r="1.765" transform="translate(35.654 20.827)"/><circle class="i" cx="1.765" cy="1.765" r="1.765" transform="translate(35.301 33.889)"/><circle class="i" cx="1.765" cy="1.765" r="1.765" transform="translate(15.532 33.536)"/><circle class="i" cx="1.765" cy="1.765" r="1.765" transform="translate(3.53 34.595)"/><circle class="i" cx="1.765" cy="1.765" r="1.765" transform="translate(5.295 49.068)"/><circle class="i" cx="1.765" cy="1.765" r="1.765" transform="translate(2.824 62.482)"/><circle class="i" cx="1.765" cy="1.765" r="1.765" transform="translate(13.414 62.482)"/><circle class="i" cx="1.765" cy="1.765" r="1.765" transform="translate(12.002 72.719)"/><circle class="i" cx="1.765" cy="1.765" r="1.765" transform="translate(4.589 80.839)"/><circle class="i" cx="1.765" cy="1.765" r="1.765" transform="translate(7.766 93.9)"/><circle class="i" cx="1.765" cy="1.765" r="1.765" transform="translate(20.121 90.723)"/><circle class="i" cx="1.765" cy="1.765" r="1.765" transform="translate(20.827 80.133)"/><circle class="i" cx="1.765" cy="1.765" r="1.765" transform="translate(16.591 45.185)"/><circle class="i" cx="1.765" cy="1.765" r="1.765" transform="translate(28.594 44.126)"/><circle class="i" cx="1.765" cy="1.765" r="1.765" transform="translate(41.302 43.067)"/><circle class="i" cx="1.765" cy="1.765" r="1.765" transform="translate(36.713 54.01)"/><circle class="i" cx="1.765" cy="1.765" r="1.765" transform="translate(33.889 67.777)"/><circle class="i" cx="1.765" cy="1.765" r="1.765" transform="translate(46.95 63.894)"/><circle class="i" cx="1.765" cy="1.765" r="1.765" transform="translate(47.303 72.366)"/><circle class="i" cx="1.765" cy="1.765" r="1.765" transform="translate(61.423 69.542)"/></g><path class="bm" d="M0,54.932C0,44.748,10.03,15.73,10.528,12.15S12.293,0,12.293,0L20.37,35.385V45.464S0,65.116,0,54.932Z" transform="translate(19.191 65.238)"/><path class="bn" d="M6.782,23.874c15.26,0,25.168,7.017,29.427,0S6.782,0,6.782,0-8.478,23.874,6.782,23.874Z" transform="translate(-2.409 -13.019)"/><path class="bo" d="M.873.994c2.983,5.2,13.9,22.181,17.5,24.592s13.263,4.927,13.263,4.927L13.237,36.7,8.711,28.418S-2.11-4.2.873.994Z" transform="translate(30.779 64.693)"/></g></g><g transform="translate(56.323 153.506)"><g transform="translate(0 0)"><path class="bp" d="M13.629,75.825c5.522-5.806,62.426-49.879,73.966-55.5s28.652-11.18,34.338-1.619-.387,18.1-13.312,29.734-75.492,39.105-84.7,42.923S8.106,81.631,13.629,75.825Z" transform="translate(-11.613 -13.526)"/><path class="bq" d="M13.629,75.825c5.522-5.806,62.426-49.879,73.966-55.5s28.652-11.18,34.338-1.619-.387,18.1-13.312,29.734-75.492,39.105-84.7,42.923S8.106,81.631,13.629,75.825Z" transform="translate(-11.613 -13.526)"/><path class="br" d="M13.629,75.825c5.522-5.806,62.426-49.879,73.966-55.5s28.652-11.18,34.338-1.619-.387,18.1-13.312,29.734-75.492,39.105-84.7,42.923S8.106,81.631,13.629,75.825Z" transform="translate(-11.613 -13.526)"/><path class="c" d="M13.629,75.825c5.522-5.806,62.426-49.879,73.966-55.5s28.652-11.18,34.338-1.619-.387,18.1-13.312,29.734-75.492,39.105-84.7,42.923S8.106,81.631,13.629,75.825Z" transform="translate(-11.613 -13.526)"/></g><g class="bs" transform="translate(0 0)"><path class="bt" d="M32.125,19.729C19.056,18.52,0,8.253,0,8.253L12.194,0,34.615,15.743S45.195,20.938,32.125,19.729Z" transform="translate(0.021 50.838)"/><path class="bu" d="M2.162.267C6.6,1.5,31.66,16.135,37.9,18.25s-4.065,8.878-8.429,10.706S-.911,9.009.4,5.644-2.279-.965,2.162.267Z" transform="translate(25.829 37.78)"/></g></g><g transform="translate(8.314 153.506)"><path class="bp" d="M122.055,75.825c-5.522-5.806-62.426-49.879-73.966-55.5S19.437,9.145,13.751,18.706s.387,18.1,13.312,29.734,75.492,39.105,84.7,42.923S127.578,81.631,122.055,75.825Z" transform="translate(-11.613 -13.526)"/><path class="bv" d="M122.055,75.825c-5.522-5.806-62.426-49.879-73.966-55.5S19.437,9.145,13.751,18.706s.387,18.1,13.312,29.734,75.492,39.105,84.7,42.923S127.578,81.631,122.055,75.825Z" transform="translate(-11.613 -13.526)"/><path class="bw" d="M122.055,75.825c-5.522-5.806-62.426-49.879-73.966-55.5S19.437,9.145,13.751,18.706s.387,18.1,13.312,29.734,75.492,39.105,84.7,42.923S127.578,81.631,122.055,75.825Z" transform="translate(-11.613 -13.526)"/><path class="bx" d="M122.055,75.825c-5.522-5.806-62.426-49.879-73.966-55.5S19.437,9.145,13.751,18.706s.387,18.1,13.312,29.734,75.492,39.105,84.7,42.923S127.578,81.631,122.055,75.825Z" transform="translate(-11.613 -13.526)"/><path class="by" d="M122.055,75.825c-5.522-5.806-62.426-49.879-73.966-55.5S19.437,9.145,13.751,18.706s.387,18.1,13.312,29.734,75.492,39.105,84.7,42.923S127.578,81.631,122.055,75.825Z" transform="translate(-11.613 -13.526)"/><path class="c" d="M122.055,75.825c-5.522-5.806-62.426-49.879-73.966-55.5S19.437,9.145,13.751,18.706s.387,18.1,13.312,29.734,75.492,39.105,84.7,42.923S127.578,81.631,122.055,75.825Z" transform="translate(-11.613 -13.526)"/></g><path class="bz" d="M7.826,1.885c-5.177,4.07-6,11.844-5.484,15.475Q2.856,20.99,6.6,30.575q2.428-9.293,8.314-14.114C10.347,14.73,5.26,11.469,7.826,1.885Z" transform="translate(63.149 59.966)"/><g transform="translate(84.422 61.498)"><path class="j" d="M8.305,1.885c5.177,4.07,6,11.844,5.484,15.475q-.515,3.631-4.263,13.215Q7.1,21.283,1.213,16.461C5.784,14.73,10.871,11.469,8.305,1.885Z" transform="translate(-1.213 -1.885)"/><g class="ca" transform="translate(0 0)"><path class="cb" d="M7.052,22.5C10.83,18.866,19.907,4.242,9.2.721S.747,17.567.747,17.567,3.273,26.137,7.052,22.5Z" transform="translate(-4.493 -1.246)"/></g></g></g><g transform="translate(358.443 229.932)"><path class="cc" d="M38.216,37.011,3.453,21.695a1.765,1.765,0,0,1,.269-3.324L70.275,1.127,106.14,17.46Z" transform="translate(-2.399 34.97)"/><path class="cd" d="M81.935,1.909,18.907,14.043a5.3,5.3,0,0,0-4.145,3.95L1.159,74.017,65.85,57.9a4.589,4.589,0,0,0,3.282-3.12L84.363,4.6a2.118,2.118,0,0,0-2.427-2.7Z" transform="translate(35.116 -1.871)"/><path class="ce" d="M13.767,13.833c-3.012,1.984-6.4,2.419-8.172-.267s.333-6.258,3.346-8.242,6.052-2.374,7.821.313S16.779,11.849,13.767,13.833Z" transform="translate(68.671 26.58)"/></g><g transform="translate(82.253 118.07)"><path class="bp" d="M1.051,1.988q34.376,9.641,50.1,2.87Q34.575,19.281,24.74,17.688C14.906,16.1,4.828,4.858,1.051,1.988Z" transform="translate(27.912 17.075)"/><g transform="translate(0 0)"><path class="cf" d="M1.006,1.988h41.26c0,21.557,11.711,29.347,24.2,31.978-14.6,8.222-41.952,3.568-49.7-3.228S4.413,21.255,1.006,1.988Z" transform="translate(-1.006 -1.988)"/><path class="c" d="M1.006,1.988h41.26c0,21.557,11.711,29.347,24.2,31.978-14.6,8.222-41.952,3.568-49.7-3.228S4.413,21.255,1.006,1.988Z" transform="translate(-1.006 -1.988)"/></g></g><g transform="translate(400.974 160.532)"><path class="bp" d="M2.634,1.575a37.236,37.236,0,0,1,3.5,3.918,12.878,12.878,0,0,1,2.47,6.366c-.762.5-5.12-2.392-5.971-4.742A10.084,10.084,0,0,1,2.634,1.575Z" transform="translate(33.886 1.002)"/><g transform="translate(0 0)"><path class="cg" d="M1.883,27.958Q16.908,17.7,17.636,2.4c2.63-.392,7.711.1,20.458,2.314q1.781.31.315,5.65,6.447,2.364,5.908,4.5C41.2,27.232,37.081,32.871,30.862,35.521Q20.16,36.88,1.883,27.958Z" transform="translate(-1.883 -2.274)"/><path class="c" d="M1.883,27.958Q16.908,17.7,17.636,2.4c2.63-.392,7.711.1,20.458,2.314q1.781.31.315,5.65,6.447,2.364,5.908,4.5C41.2,27.232,37.081,32.871,30.862,35.521Q20.16,36.88,1.883,27.958Z" transform="translate(-1.883 -2.274)"/></g></g><g transform="translate(162.397 37.553)"><path class="bp" d="M5.4,1.269a27.068,27.068,0,0,1-.014,3.82A9.363,9.363,0,0,1,3.619,9.729c-.656-.1-1.6-3.783-.919-5.467A7.333,7.333,0,0,1,5.4,1.269Z" transform="translate(25.574 10.159)"/><g transform="translate(0 0)"><path class="ch" d="M1.039,8.043Q14.146,9.81,21.984,1.9C23.6,2.964,26.1,5.7,31.911,13.1q.811,1.033-2.578,3.205,2.333,4.413,1,5.307c-7.7,5.167-12.669,6.209-17.318,4.615Q6.573,21.754,1.039,8.043Z" transform="translate(-1.039 -1.897)"/><path class="c" d="M1.039,8.043Q14.146,9.81,21.984,1.9C23.6,2.964,26.1,5.7,31.911,13.1q.811,1.033-2.578,3.205,2.333,4.413,1,5.307c-7.7,5.167-12.669,6.209-17.318,4.615Q6.573,21.754,1.039,8.043Z" transform="translate(-1.039 -1.897)"/></g></g><g transform="translate(326.237 76.727)"><path class="ci" d="M28.361,1.869C24.756,11.906,13.018,17.7,1.167,19.9c4.787,7.481,14.341,19.5,22.64,28.185.395.413,1.994,1.06,2.415,1.4,2.543,2.052,5.265.892,6.678.872,6.99-2.188,13.194-3.127,19.011-8.405a36.609,36.609,0,0,0,5.9-6.395C56.075,30.248,47.47,25.6,28.361,1.869Z" transform="translate(-1.167 -1.869)"/><path class="cj" d="M9.474,10.473c.133,2.94-5.04,5.632-7.995,2.744A11.113,11.113,0,0,0,9.8,16.694c2.338-.007,13.257.019,26.279-15.384C24.562,13.853,15.829,17.077,9.474,10.473Z" transform="translate(20.518 32.381)"/></g><g transform="translate(63.724 208.091)"><g transform="translate(13.937 63.188)"><path class="ck" d="M22.18,1c11.7,0,21.18,2.055,21.18,4.589s-9.483,4.589-21.18,4.589S1,8.124,1,5.589,10.483,1,22.18,1Z" transform="translate(-1 25.828)"/><g transform="translate(1.059 4.236)"><path class="k" d="M49.347,2.483a18.509,18.509,0,0,1,2.486,9.224c0,11.8-11.379,21.357-25.416,21.357S1,23.5,1,11.707A18.576,18.576,0,0,1,3.772,2C15.031,3.781,37.442,3.667,49.347,2.483Z" transform="translate(-1 -1.999)"/></g><g transform="translate(3.53 0)"><path class="l" d="M25.122,1c12.77,0,23.122,2.45,23.122,5.472s-10.352,5.472-23.122,5.472S2,9.494,2,6.472,12.352,1,25.122,1Z" transform="translate(-2 -1)"/></g></g><g transform="translate(0 0)"><g transform="translate(16.408)"><g transform="translate(0)"><path class="m" d="M23.239,65.6C21.977,56.862,18.5,44.244,8.06,30.652,1.909,22.646,1.889,3.15,1,1,5.827,2.66,14.5,6.939,23.239,19,32.4,31.65,26.59,57.443,23.239,65.6Z" transform="translate(-1 -1)"/><g class="cn"><path class="co" d="M11.679,50.3C12.643,29.062,10,15.656,1.683,3" transform="translate(10.207 14.297)"/></g></g></g><g transform="translate(0 31.681)"><g transform="translate(0 0)"><path class="n" d="M40.205,43.635A61.669,61.669,0,0,0,16.874,22.083C9.489,18.044,2.92,3.183,1.519,1.842c4.241-.356,12.3-.006,23.022,6.258C35.785,14.666,40.019,36.288,40.205,43.635Z" transform="translate(-1.519 -1.746)"/><g class="cp"><path class="co" d="M25.223,36.783C18.818,20.261,12.293,10.926,1.694,4.068" transform="translate(13.194 5.224)"/></g></g></g><g transform="translate(41.312 27.821)"><g transform="translate(0 0)"><path class="m" d="M3.724,48.415A61.856,61.856,0,0,1,24.167,23.946C31,18.972,35.614,3.327,36.835,1.811c-4.271.193-12.249,1.58-22.12,9.2C4.368,19,2.956,41.076,3.724,48.415Z" transform="translate(-3.548 -1.811)"/><g class="cq"><path class="co" d="M1.513,37.523C5.749,20.245,11.036,10.109,20.7,1.913" transform="translate(-2.231 9.066)"/></g></g></g></g></g><g class="cr" transform="translate(416.901 33)"><path class="o" d="M23.886,1A21.886,21.886,0,1,1,2,22.886,21.886,21.886,0,0,1,23.886,1Z" transform="translate(-2 -1)"/><g class="cs" transform="translate(0 0)"><path class="ct" d="M7.756,4.659V20.406l7.207,7.207" transform="translate(14.397 2.281)"/></g></g></g></svg>