<svg xmlns="http://www.w3.org/2000/svg" width="70" height="70" viewBox="0 0 70 70"><defs><style>.a{fill:#563d7c;}.b{fill:#fff;}</style></defs><path class="a" d="M0,60.974A9.026,9.026,0,0,0,9.026,70H60.974A9.026,9.026,0,0,0,70,60.974V9.026A9.026,9.026,0,0,0,60.974,0H9.026A9.025,9.025,0,0,0,0,9.026Z" transform="translate(0 0)"/><path class="b" d="M81.394,67.655V57.742H90.12a13.586,13.586,0,0,1,2.4.208,6.006,6.006,0,0,1,2.048.742A3.953,3.953,0,0,1,96,60.176a4.928,4.928,0,0,1,.534,2.434,4.484,4.484,0,0,1-1.6,3.858,6.7,6.7,0,0,1-4.1,1.187ZM72.075,50.5V92.883H92.613a21.669,21.669,0,0,0,5.55-.712,14.844,14.844,0,0,0,4.808-2.2,10.818,10.818,0,0,0,3.354-3.829,12.956,12.956,0,0,0-.683-12.347A10.187,10.187,0,0,0,99.8,69.851a10.561,10.561,0,0,0,4.3-3.5,9.283,9.283,0,0,0,1.454-5.342,11.368,11.368,0,0,0-.979-4.986,8.144,8.144,0,0,0-2.76-3.235,11.917,11.917,0,0,0-4.274-1.751,26.4,26.4,0,0,0-5.52-.534Zm9.32,35.141V74.006h10.15a7.854,7.854,0,0,1,4.868,1.4q1.84,1.395,1.84,4.66a5.825,5.825,0,0,1-.564,2.731,4.479,4.479,0,0,1-1.514,1.692,6.41,6.41,0,0,1-2.2.891,12.442,12.442,0,0,1-2.612.267Z" transform="translate(-52.367 -36.691)"/></svg>