<svg xmlns="http://www.w3.org/2000/svg" width="100" height="28.085" viewBox="0 0 100 28.085"><defs><style>.a{fill:#932279;}.b{fill:#efa724;}.c{fill:#262577;}.d{fill:#9ccd2a;}.e{fill:#fff;}</style></defs><g transform="translate(-0.219 -0.219)"><path d="M232.717,45.448a4.224,4.224,0,0,1-1.12,2.979,3.707,3.707,0,0,1-2.846,1.211l-9.089-.019V47.2h7.491a2.131,2.131,0,0,0,1.267-.365,1.346,1.346,0,0,0,.588-1.153q0-1.71-2.314-1.71h-3.783a4.26,4.26,0,0,1-2.864-1.057,3.391,3.391,0,0,1-1.23-2.691,3.812,3.812,0,0,1,1.193-2.921,4.462,4.462,0,0,1,3.177-1.134h8.684v2.306h-7.656a1.616,1.616,0,0,0-1.046.461,1.35,1.35,0,0,0-.514,1.057,1.57,1.57,0,0,0,.5,1.172,1.78,1.78,0,0,0,1.23.461h4.168A4.221,4.221,0,0,1,231.6,42.68a3.592,3.592,0,0,1,1.12,2.767ZM214.752,42.8a5.049,5.049,0,0,0-.9-3.152,3.549,3.549,0,0,0-2.993-1.307,3.365,3.365,0,0,0-2.938,1.4A5.192,5.192,0,0,0,207.1,42.8a6.105,6.105,0,0,0,.661,3.209q.918,1.441,3.4,1.441a3.147,3.147,0,0,0,2.938-1.4,6.39,6.39,0,0,0,.661-3.248Zm3.268.077q0,3.921-2.075,5.612a7.68,7.68,0,0,1-4.921,1.365q-3.58,0-5.288-1.576-1.873-1.73-1.873-5.554a6.781,6.781,0,0,1,1.671-4.881,7.18,7.18,0,0,1,5.435-1.9q3.984,0,5.618,1.826,1.432,1.615,1.432,5.112Zm-14.983-1.134h-2.479v4.516a1.38,1.38,0,0,0,.4,1.019,1.768,1.768,0,0,0,1.212.4h.753v1.941h-2.369a2.4,2.4,0,0,1-1.818-.807,2.286,2.286,0,0,1-.569-1.057,6.337,6.337,0,0,1-.128-1.364V41.739h-1.616V39.663h1.616v-3.5h2.515v3.5h2.479v2.076Zm-7.33,7.879h-2.552V43.065a.871.871,0,0,0-.11-.442,1.551,1.551,0,0,0-.312-.4,1.234,1.234,0,0,0-.845-.327h-2.5v7.726h-2.552V39.663h4.884a8.254,8.254,0,0,1,1.891.154,2.477,2.477,0,0,1,1.469,1.019,3.526,3.526,0,0,1,.624,2.018v6.765Zm-10.47.058h-4.48a3.608,3.608,0,0,1-2.846-1.461,5.264,5.264,0,0,1-1.194-3.4,5.364,5.364,0,0,1,1.3-3.613,3.841,3.841,0,0,1,2.938-1.538h4.26v2.056H182.1a3.866,3.866,0,0,0-1.01.115,1.744,1.744,0,0,0-.753.4,1.987,1.987,0,0,0-.642,1.557H185.2v2.076h-5.49a2.931,2.931,0,0,0,.092.788,1.851,1.851,0,0,0,.422.634,1.649,1.649,0,0,0,.734.423,5.075,5.075,0,0,0,1.065.1h3.213v1.864Zm-9.449-.058h-5.674a6,6,0,0,1-1.708-.25,4.439,4.439,0,0,1-2.589-2.383,8.558,8.558,0,0,1-.863-3.94,9.085,9.085,0,0,1,.771-3.844,4.722,4.722,0,0,1,2.405-2.518,6.242,6.242,0,0,1,2.479-.519h5.141v2.575h-5.343a1.988,1.988,0,0,0-1.891,1.48,8.292,8.292,0,0,0-.459,3.017,5.59,5.59,0,0,0,.587,2.671,2.1,2.1,0,0,0,1.91,1.288l5.233-.019v2.441Z" transform="translate(-132.499 -28.727)"/><path class="a" d="M13.36,53.207l1.016,1.01-1.016,1.01H6.209v3.365L1.848,54.217l4.361-4.3v3.292Z" transform="translate(-1.311 -39.972)"/><path class="b" d="M55.083,13.36l-1.01,1.016-1.01-1.016V6.209H49.7l4.375-4.361,4.3,4.361H55.083V13.36Z" transform="translate(-39.797 -1.311)"/><path class="c" d="M79.106,55.083l-1.016-1.01,1.016-1.01h7.15V49.7l4.361,4.375-4.361,4.3V55.083Z" transform="translate(-62.633 -39.797)"/><path class="d" d="M53.208,79.106l1.01-1.016,1.01,1.016v7.151h3.365l-4.375,4.361-4.3-4.361h3.291V79.106Z" transform="translate(-39.972 -62.633)"/><path class="d" d="M22.822,22.822h8.688v8.688H22.822Z" transform="translate(-18.18 -18.18)"/><path class="e" d="M21.236,21.236h9.309v9.309H21.236Zm.621,8.688h8.068V21.857H21.857Z" transform="translate(-16.905 -16.905)"/><path class="a" d="M76.733,22.822h8.688v8.688H76.733Z" transform="translate(-61.541 -18.18)"/><path class="e" d="M75.148,21.236h9.309v9.309H75.148Zm.621,8.688h8.068V21.857H75.769Z" transform="translate(-60.266 -16.905)"/><path class="b" d="M76.733,76.733h8.688v8.688H76.733Z" transform="translate(-61.541 -61.541)"/><path class="e" d="M75.148,75.148h9.309v9.309H75.148Zm.621,8.688h8.068V75.769H75.769Z" transform="translate(-60.266 -60.266)"/><path class="c" d="M22.822,76.733h8.688v8.688H22.822Z" transform="translate(-18.18 -61.541)"/><path class="e" d="M21.236,75.148h9.309v9.309H21.236Zm.621,8.688h8.068V75.769H21.857Z" transform="translate(-16.905 -60.266)"/><path class="e" d="M6.8,51.505.219,44.923,6.8,38.34l6.583,6.582L6.8,51.505ZM1.1,44.923l5.7,5.7,5.7-5.7-5.7-5.7-5.7,5.7Z" transform="translate(0 -30.661)"/><path class="e" d="M44.923,13.384,38.34,6.8,44.923.219,51.5,6.8l-6.582,6.582ZM39.218,6.8l5.7,5.7,5.7-5.7-5.7-5.7-5.7,5.7Z" transform="translate(-30.661)"/><path class="e" d="M83.044,51.505l-6.582-6.583,6.582-6.582,6.582,6.582-6.582,6.583Zm-5.7-6.583,5.7,5.7,5.7-5.7-5.7-5.7-5.7,5.7Z" transform="translate(-61.323 -30.661)"/><path class="e" d="M44.923,89.626,38.34,83.044l6.582-6.582L51.5,83.044l-6.582,6.582Zm-5.7-6.582,5.7,5.7,5.7-5.7-5.7-5.7-5.7,5.7Z" transform="translate(-30.661 -61.323)"/></g></svg>