<svg xmlns="http://www.w3.org/2000/svg" width="70.003" height="70" viewBox="0 0 70.003 70"><defs><style>.a{fill:#91dc47;}.b{fill:#63b132;}.c{fill:#90b4fe;}.d{fill:#5881d8;}</style></defs><g transform="translate(-12.429 -12.541)"><g transform="translate(12.429 12.541)"><path class="a" d="M99.82,118.3c-.348.754-.732,1.6-1.129,2.5a63.524,63.524,0,0,0-3.53,9.541,14.331,14.331,0,0,0-.328,3.195c0,.48.026.985.067,1.5a18.418,18.418,0,0,0,12.209.185,10.972,10.972,0,0,1-1.217-1.288c-2.487-3.172-3.875-7.82-6.07-15.635" transform="translate(-66.269 -82.672)"/><path class="a" d="M62.829,66.225a18.471,18.471,0,0,0-.213,30.1c1.136-4.731,3.983-9.063,8.253-17.747-.254-.7-.543-1.459-.866-2.26-1.183-2.967-2.89-6.413-4.413-7.973a12.28,12.28,0,0,0-2.76-2.121" transform="translate(-38.46 -46.351)"/><path class="b" d="M51.552,97.826a30.091,30.091,0,0,1-6.243-1.3,22.231,22.231,0,0,1-24.53-36.637,16.32,16.32,0,0,0-3.861-.473C10.394,59.475,3.507,63.086.64,72.837a18.273,18.273,0,0,0-.2,3.765A34.992,34.992,0,0,0,64.06,96.724a40.769,40.769,0,0,1-9.539,1.27,24.567,24.567,0,0,1-2.968-.169" transform="translate(-0.429 -41.601)"/><path class="c" d="M112.269,88a9.766,9.766,0,0,0,1.388.475,18.507,18.507,0,0,0,7.578-14.919h0A18.483,18.483,0,0,0,96.916,56c3.758,4.283,5.564,10.4,7.312,17.1l0,.008c0,.005.559,1.859,1.513,4.319a42.7,42.7,0,0,0,3.77,7.713A8.09,8.09,0,0,0,112.269,88" transform="translate(-67.722 -38.56)"/><path class="d" d="M50.558.541A34.946,34.946,0,0,0,22.114,15.16a17.774,17.774,0,0,1,9.626-2.79,18.8,18.8,0,0,1,8.8,2.136c.371.214.723.444,1.067.68A22.237,22.237,0,0,1,72.8,35.541h0a22.166,22.166,0,0,1-6.615,15.822,27.306,27.306,0,0,0,3.162.177c3.876,0,8.066-.854,11.207-3.5A14.794,14.794,0,0,0,85.263,40,34.946,34.946,0,0,0,50.558.541" transform="translate(-15.553 -0.541)"/></g></g></svg>