<svg xmlns="http://www.w3.org/2000/svg" width="46.667" height="70" viewBox="0 0 46.667 70"><defs><style>.a{fill:#0acf83;}.b{fill:#a259ff;}.c{fill:#f24e1e;}.d{fill:#ff7262;}.e{fill:#1abcfe;}</style></defs><path class="a" d="M11.667,223.333a11.671,11.671,0,0,0,11.667-11.667V200H11.667a11.667,11.667,0,0,0,0,23.333Z" transform="translate(0 -153.333)"/><path class="b" d="M0,111.667A11.671,11.671,0,0,1,11.667,100H23.333v23.333H11.667A11.671,11.671,0,0,1,0,111.667Z" transform="translate(0 -76.667)"/><path class="c" d="M0,11.667A11.671,11.671,0,0,1,11.667,0H23.333V23.333H11.667A11.671,11.671,0,0,1,0,11.667Z"/><path class="d" d="M100,0h11.667a11.667,11.667,0,0,1,0,23.333H100Z" transform="translate(-76.667)"/><path class="e" d="M123.333,111.667A11.667,11.667,0,1,1,111.667,100,11.671,11.671,0,0,1,123.333,111.667Z" transform="translate(-76.667 -76.667)"/></svg>