<svg xmlns="http://www.w3.org/2000/svg" width="51.386" height="70" viewBox="0 0 51.386 70"><defs><style>.a{fill:#f6d2a2;}.b{fill:#69d7e2;}.c{fill:#fff;}.d{fill:#231f20;}</style></defs><g transform="translate(-0.408 -0.199)"><path class="a" d="M1.762,175.264c.1,2.068,2.169,1.1,3.093.462.884-.623,1.145-.1,1.225-1.305a19.024,19.024,0,0,0,.1-2.39,5.83,5.83,0,0,0-3.9,1c-.582.4-1.627,1.727-.522,2.229" transform="translate(-0.693 -137.17)"/><path class="a" d="M194.428,314.272c1.586.984,4.5,3.956,2.109,5.4-2.289,2.088-3.575-2.31-5.583-2.912a5.427,5.427,0,0,1,3.474-2.49Z" transform="translate(-152.132 -250.755)"/><path class="a" d="M37.409,319.859c-1.868.281-2.912,1.968-4.478,2.832-1.466.863-2.028-.281-2.149-.522-.221-.1-.2.1-.562-.261-1.366-2.149,1.406-3.715,2.852-4.78,2.008-.4,3.273,1.345,4.338,2.731Z" transform="translate(-23.508 -252.989)"/><path class="a" d="M234.377,173.969c-.1,2.068-2.169,1.1-3.093.462-.884-.623-1.145-.1-1.225-1.305a18.989,18.989,0,0,1-.1-2.39,5.831,5.831,0,0,1,3.9,1c.562.4,1.627,1.727.522,2.229" transform="translate(-183.264 -136.136)"/><path class="b" d="M52.023,13.564c7.169-2.53,1.566-12.35-4.679-8.013-4.1-3.514-9.74-4.157-15.664-4.157-5.8.462-11.326,1.526-15.182,4.9C10.273,2.278,4.53,11.917,11.84,14.347c-2.048,7.952.281,16.065-.04,24.158-.3,7.27-2.209,17.009,1.827,23.536,3.434,5.583,10.824,7.571,16.909,7.792,7.772.281,17.19-1.627,20.965-9.157,3.615-7.169,2.611-16.106,2.149-23.837-.462-7.812.4-15.744-1.627-23.275Z" transform="translate(-6.393 -0.954)"/><path d="M51.655,36.608a3.357,3.357,0,0,0-.944-1.165,6.088,6.088,0,0,0-3.334-1.064c-.04-1.245-.08-2.611-.08-4.338V28.474a91.3,91.3,0,0,0-.361-9.82,39.73,39.73,0,0,0-1.044-5.944A4.839,4.839,0,0,0,49,9.738,4.829,4.829,0,0,0,48.522,5.9a5.052,5.052,0,0,0-7.531-1.586,15.313,15.313,0,0,0-4.5-2.591C33.5.621,30.027.2,25.307.2V.4l-.02-.2c-5.04.4-8.776,1.185-11.868,2.691a14.761,14.761,0,0,0-3.313,2.169,5.311,5.311,0,0,0-4.458-.7,5.478,5.478,0,0,0-3.153,2.57,4.566,4.566,0,0,0-.382,3.836,4.926,4.926,0,0,0,3.113,2.731,29.065,29.065,0,0,0-.8,6.547,73.558,73.558,0,0,0,.422,8.334c.261,3.113.361,4.538.4,6.266A6.011,6.011,0,0,0,1.49,35.684a3,3,0,0,0-.944,1.165.961.961,0,0,0,.361,1.366c.08.964.623,1.406,1.446,1.325A4.389,4.389,0,0,0,4.3,38.716a2.25,2.25,0,0,1,.422-.241c.06-.02.1-.04.161-.06,0,0,.12-.04.161-.06a.4.4,0,0,0,.161-.08c-.04.944-.12,1.928-.3,4.177-.2,2.53-.3,3.916-.341,5.462-.181,5.743.5,9.92,2.55,13.234a13.054,13.054,0,0,0,2.35,2.812c-.181.12-.944.683-1.185.863A6.387,6.387,0,0,0,6.511,66.61,2.2,2.2,0,0,0,6.571,69l.02.02.02.02c.221.221.341.281.5.281h.06c.02.04.04.06.06.1a2.96,2.96,0,0,0,.181.261,1.524,1.524,0,0,0,2.149.161,8.823,8.823,0,0,0,1.627-1.2l.04-.04a5.26,5.26,0,0,1,2.731-1.566l.321-.06c.12.06.241.1.382.161a28.671,28.671,0,0,0,9.519,1.888,32.223,32.223,0,0,0,12.049-1.667A21.5,21.5,0,0,0,38.9,66.168a5.029,5.029,0,0,1,1.807,1.607.209.209,0,0,1,.06.08.765.765,0,0,1,.06.08c.04.06.1.1.141.161a4.6,4.6,0,0,0,1.607,1.386,1.738,1.738,0,0,0,1.968-.462c1.165-.723,1.245-1.847.482-3.133a8.6,8.6,0,0,0-2.37-2.45A13.887,13.887,0,0,0,45.309,59.8c1.928-3.856,2.671-8.354,2.631-14.138-.02-2.048-.1-3.835-.321-7.249v-.1a1.2,1.2,0,0,1,.3.181,4.632,4.632,0,0,0,1.948.823c.823.08,1.366-.361,1.446-1.325h0a1,1,0,0,0,.341-1.386ZM45.269,3.854A4.815,4.815,0,0,1,48.16,6.143a4.39,4.39,0,0,1,.462,3.514,4.393,4.393,0,0,1-2.852,2.691,32.668,32.668,0,0,0-1.064-3.173,1.475,1.475,0,0,0,.4-2.008,1.582,1.582,0,0,0-2.088-.723A15.014,15.014,0,0,0,41.313,4.6a4.888,4.888,0,0,1,3.956-.743ZM2.454,10.642a4.1,4.1,0,0,1,.361-3.494,5.055,5.055,0,0,1,2.932-2.37,4.994,4.994,0,0,1,4.036.6A13.213,13.213,0,0,0,7.7,7.77c-1.044-.542-2.109-.643-2.711.462-.623,1.185.1,1.928,1.125,2.49-.141.341-.281.7-.4,1.064-.141.442-.281.9-.4,1.366a4.619,4.619,0,0,1-2.852-2.51Zm2.43,27.372c-.02,0-.141.04-.141.06a.718.718,0,0,0-.181.08,2.006,2.006,0,0,0-.482.281,3.9,3.9,0,0,1-1.767.743c-.6.06-.944-.2-1-.924a1.23,1.23,0,0,0,.763-.482l-.321-.241c-.12.161-.241.221-.6.341h0c-.02,0-.02,0-.04.02-.321-.181-.382-.462-.2-.863a2.879,2.879,0,0,1,.823-1,5.48,5.48,0,0,1,3.534-.964c0,.5.02,1,0,1.486a.442.442,0,0,1-.02.161c-.02.281-.02.4-.04.542h0c-.06.582-.1.663-.321.763Zm6.065,30.3-.04.04a8.93,8.93,0,0,1-1.566,1.165c-.763.462-1.285.361-1.647-.08a1.22,1.22,0,0,1-.141-.2c-.02-.02-.04-.06-.06-.08v-.02a2.666,2.666,0,0,1,.542-1.185c.02-.02.02-.02.02-.04a4.3,4.3,0,0,0,.422-.723l-.361-.161a5.491,5.491,0,0,1-.382.663c-.02.02-.02.02-.02.04a3.327,3.327,0,0,0-.6,1.2h-.08a.728.728,0,0,1-.181-.141c-.783-1.245-.161-2.309,1.607-3.635.221-.16.964-.683,1.165-.843a.287.287,0,0,0,.12-.04A16.881,16.881,0,0,0,13.5,66.67h0c0,.02.02.04.04.06a6.168,6.168,0,0,0-2.591,1.586Zm33.717-2.189c.623,1.044.6,1.888-.181,2.47-.06-.121-.1-.261-.181-.462,0-.02,0-.02-.02-.04a3.65,3.65,0,0,0-.8-1.446l-.281.281a3.17,3.17,0,0,1,.723,1.285c0,.02,0,.02.02.04.1.261.161.422.221.562a1.278,1.278,0,0,1-1.466.3,4.693,4.693,0,0,1-1.466-1.285,1.11,1.11,0,0,1-.12-.161.277.277,0,0,1-.06-.08.212.212,0,0,1-.06-.08,6.669,6.669,0,0,0-1.667-1.586,16.1,16.1,0,0,0,3.033-2.209,9.391,9.391,0,0,1,2.309,2.41Zm.281-6.507a15.19,15.19,0,0,1-8.876,7.41,31.947,31.947,0,0,1-11.908,1.627c-7.37-.261-13.756-2.832-16.748-7.691-2.008-3.233-2.671-7.35-2.49-13.013.06-1.546.141-2.932.341-5.462.221-2.852.281-3.675.341-4.96.04-.924.04-1.868.02-2.872-.04-1.767-.141-3.173-.4-6.326A73.14,73.14,0,0,1,4.8,20.04a26.915,26.915,0,0,1,1.305-8.173A14.175,14.175,0,0,1,13.6,3.252C16.632,1.766,20.307,1,25.307.6c4.679,0,8.093.422,11.045,1.506a14.115,14.115,0,0,1,7.972,7.109,33.67,33.67,0,0,1,2.209,9.459,90.45,90.45,0,0,1,.361,9.78v1.566c.02,2.43.06,4.137.161,5.844.04.663.06.944.16,2.53.221,3.414.3,5.181.321,7.229.04,5.763-.683,10.2-2.591,14Zm6.145-21.99h0c-.02,0-.04-.02-.06-.02a1.146,1.146,0,0,1-.6-.341l-.321.241a1.36,1.36,0,0,0,.763.482c-.08.723-.422.984-1,.924a4.132,4.132,0,0,1-1.767-.743,3,3,0,0,0-.482-.281c-.02,0-.04-.02-.06-.02-.08-1.1-.08-1.386-.121-1.968q-.03-.542-.06-1.084a5.383,5.383,0,0,1,3.073.984,2.879,2.879,0,0,1,.823,1,.525.525,0,0,1-.181.823Z"/><g transform="translate(22.293 19.845)"><path class="c" d="M19.164,4.262A17.326,17.326,0,0,1,19.2,7.5c-.281.522-.8.582-1.265.783a1.892,1.892,0,0,1-1.446-1.125,19.781,19.781,0,0,1,.1-3.615,4.609,4.609,0,0,1,1.446.221,4.859,4.859,0,0,1,1.125.5Z" transform="translate(-13.125 -2.957)"/><path class="c" d="M1.275,4.353c-.562,2.129.743,5.6,2.892,2.751a19.082,19.082,0,0,1,.08-3.554,14.255,14.255,0,0,0-2.972.8Z" transform="translate(-0.919 -2.968)"/><path d="M6.307,2.946c-.04-.6-.06-.843-.06-1.145V1.661l-.141-.04L3.576.838V.7l-.261.06h-.02v.02L.443,1.5l-.1.02-.04.1A4.626,4.626,0,0,0,.524,5.276C1.166,6.4,2.211,6.421,3.275,5.135A2.055,2.055,0,0,0,4.781,6.22h.06L4.9,6.2c.08-.04.161-.06.3-.12.02,0,.02,0,.04-.02a1.492,1.492,0,0,0,1.024-.743l.02-.02v-.04a7.076,7.076,0,0,0,.08-1.165c0-.3-.02-.582-.06-1.145ZM3.094,2.2c-.02.361-.04.5-.06.7a11.323,11.323,0,0,0,.02,1.868c-.944,1.2-1.687,1.2-2.189.3A4.234,4.234,0,0,1,.644,1.862l2.53-.643c-.02.261-.04.522-.08.984ZM5.906,5.176c-.141.241-.321.361-.8.522-.02,0-.02,0-.04.02-.12.04-.2.08-.261.1a1.671,1.671,0,0,1-1.225-.964,11.04,11.04,0,0,1-.02-1.848c.02-.2.02-.341.06-.7.04-.462.06-.743.06-1l2.189.663c0,.261.02.5.06,1.024.04.542.06.823.06,1.145a5.656,5.656,0,0,1-.08,1.044Z" transform="translate(-0.027 -0.697)"/></g><g transform="translate(10.227 4.647)"><path class="c" d="M1.687,8.84C3.534,16.03,15.041,14.182,14.6,6.973,14.077-1.663-.08,0,1.687,8.84" transform="translate(-1.353 -1.086)"/><path d="M14.083,6.152a5.879,5.879,0,0,0-2.57-4.739A7.326,7.326,0,0,0,6.552.348,7.2,7.2,0,0,0,2.034,2.658,6.137,6.137,0,0,0,.789,8.04L.97,8l-.181.04c1.888,7.39,13.736,5.6,13.294-1.888ZM1.15,8A5.745,5.745,0,0,1,2.315,2.939,6.8,6.8,0,0,1,6.593.75a6.8,6.8,0,0,1,4.7,1A5.534,5.534,0,0,1,13.7,6.212C14.123,13.221,2.938,14.908,1.15,8Z" transform="translate(-0.636 -0.285)"/><ellipse cx="1.948" cy="2.109" rx="1.948" ry="2.109" transform="translate(1.559 4.461)"/><ellipse class="c" cx="0.462" cy="0.542" rx="0.462" ry="0.542" transform="translate(3.928 6.509)"/></g><g transform="translate(26.483 3.963)"><path class="c" d="M1.138,8.6c1.426,8.254,14.921,6.065,12.973-2.249C12.364-1.123.656.946,1.138,8.6" transform="translate(-0.923 -1.502)"/><path d="M13.5,5.574C11.711-2.117-.338-.008.144,7.884V7.9c.663,3.9,4.137,5.884,7.972,5.241a7.17,7.17,0,0,0,4.338-2.39A5.794,5.794,0,0,0,13.5,5.574Zm-1.345,4.94a6.745,6.745,0,0,1-4.1,2.249c-3.635.6-6.888-1.265-7.531-4.92C.083.413,11.45-1.575,13.136,5.655a5.413,5.413,0,0,1-.984,4.86Z" transform="translate(-0.129 -0.769)"/><ellipse cx="1.908" cy="2.109" rx="1.908" ry="2.109" transform="translate(1.621 4.624)"/><ellipse class="c" cx="0.442" cy="0.542" rx="0.442" ry="0.542" transform="translate(3.97 6.673)"/></g><g transform="translate(20.579 14.514)"><path class="a" d="M4.12,11.676A2.5,2.5,0,0,0,2.072,15.17c1.084,1.968,3.514-.181,5.02.02,1.747.04,3.173,1.848,4.559.321,1.546-1.687-.663-3.334-2.41-4.057l-5.121.221Z" transform="translate(-1.636 -9.298)"/><path class="d" d="M11.141,12.306a6.406,6.406,0,0,0-2.51-1.727l-.04-.02H8.55l-5.141.2a2.706,2.706,0,0,0-2.209,3.8,1.677,1.677,0,0,0,1.426.944,4.441,4.441,0,0,0,1.687-.341c.06-.02.141-.04.241-.08A3.978,3.978,0,0,1,6.361,14.7h.02a4.381,4.381,0,0,1,1.647.442,5.077,5.077,0,0,0,1.526.482,1.827,1.827,0,0,0,1.546-.663,1.855,1.855,0,0,0,.04-2.651Zm-.341,2.37a1.448,1.448,0,0,1-1.225.542,4.388,4.388,0,0,1-1.406-.442A4.685,4.685,0,0,0,6.4,14.294a4.353,4.353,0,0,0-1.988.4c-.1.04-.181.06-.241.08-1.466.5-2.169.462-2.651-.422a2.313,2.313,0,0,1,1.888-3.213l5.081-.2a6.067,6.067,0,0,1,2.329,1.607,1.446,1.446,0,0,1-.02,2.129Z" transform="translate(-0.925 -8.582)"/><g transform="translate(2.282 0)"><path d="M6.014,2.269C5.391-.02.17.321.291,3.052c.261,2.028,6.326,1.486,5.723-.783Z" transform="translate(-0.289 -0.755)"/></g></g></g></svg>