<svg xmlns="http://www.w3.org/2000/svg" width="77.857" height="70" viewBox="0 0 77.857 70"><defs><style>.a{fill:#fff;}.b{fill:#53c1de;}</style></defs><g transform="translate(-0.754 -0.784)"><path class="a" d="M.754,35.659c0,5.88,5.741,11.369,14.793,14.463-1.808,9.1-.324,16.434,4.631,19.292,5.094,2.937,12.682.9,19.884-5.392,7.021,6.041,14.116,8.419,19.067,5.553,5.089-2.946,6.636-10.778,4.779-20.162,9.428-3.117,14.7-7.8,14.7-13.755,0-5.743-5.752-10.712-14.682-13.786,2-9.772.305-16.928-4.855-19.9C54.1-.9,46.921,1.6,39.8,7.8,32.386,1.219,25.278-.79,20.123,2.195c-4.971,2.877-6.389,10.345-4.575,19.613C6.8,24.857.754,29.938.754,35.659Z" transform="translate(0 0)"/><path class="b" d="M72.093,34.454q-1.076-.37-2.226-.7.189-.77.344-1.518c1.685-8.179.583-14.768-3.179-16.937-3.607-2.08-9.506.089-15.464,5.274q-.859.748-1.722,1.58-.574-.549-1.146-1.058c-6.244-5.544-12.5-7.88-16.261-5.7-3.6,2.086-4.671,8.28-3.154,16.031q.22,1.123.511,2.291c-.886.251-1.741.52-2.559.8-7.32,2.552-12,6.552-12,10.7,0,4.285,5.019,8.583,12.644,11.189q.9.308,1.87.585-.313,1.261-.543,2.468c-1.446,7.617-.317,13.664,3.277,15.737,3.712,2.141,9.943-.06,16.009-5.363q.719-.629,1.443-1.33.937.9,1.869,1.705c5.877,5.057,11.68,7.1,15.271,5.02,3.708-2.147,4.914-8.644,3.349-16.548q-.179-.906-.415-1.848.656-.194,1.286-.4C79.23,53.8,84.387,49.558,84.387,45.215c0-4.164-4.826-8.191-12.294-10.762Z" transform="translate(-10.055 -9.528)"/><path class="a" d="M77.073,60.31c-.378.125-.766.246-1.161.363a69.281,69.281,0,0,0-3.5-8.759,69.308,69.308,0,0,0,3.365-8.632c.707.2,1.394.421,2.055.648,6.4,2.2,10.3,5.459,10.3,7.969,0,2.673-4.215,6.143-11.059,8.411Zm-2.84,5.627a25.012,25.012,0,0,1,.332,9.126c-.412,2.22-1.24,3.7-2.264,4.292-2.179,1.261-6.839-.378-11.864-4.7q-.864-.744-1.739-1.585a69.385,69.385,0,0,0,5.8-7.359,68.956,68.956,0,0,0,9.364-1.443q.212.853.374,1.673Zm-28.719,13.2c-2.129.752-3.825.773-4.85.182-2.181-1.258-3.088-6.114-1.851-12.627q.212-1.119.5-2.3a69.472,69.472,0,0,0,9.318,1.349,71.92,71.92,0,0,0,5.936,7.333q-.661.638-1.317,1.213a25.016,25.016,0,0,1-7.74,4.846ZM35.54,60.293a25.017,25.017,0,0,1-8.064-4.284C25.761,54.54,24.9,53.082,24.9,51.9c0-2.518,3.754-5.729,10.014-7.912.76-.265,1.555-.514,2.38-.749a70.8,70.8,0,0,0,3.37,8.733,71.979,71.979,0,0,0-3.412,8.857q-.882-.253-1.707-.534Zm3.343-22.758c-1.3-6.641-.436-11.651,1.735-12.908,2.313-1.339,7.428.57,12.819,5.357q.517.459,1.038.958a70.779,70.779,0,0,0-5.89,7.289,72.193,72.193,0,0,0-9.227,1.434q-.27-1.086-.475-2.13ZM68.71,44.9q-1.026-1.773-2.1-3.458c2.206.279,4.32.649,6.3,1.1A63,63,0,0,1,70.7,48.5q-.941-1.786-1.989-3.6ZM56.547,33.053a63.2,63.2,0,0,1,4.069,4.912q-2.029-.1-4.1-.1-2.051,0-4.07.1c1.343-1.771,2.719-3.417,4.1-4.91ZM44.306,44.92Q43.281,46.7,42.354,48.5c-.86-2.04-1.6-4.046-2.2-5.983,1.973-.441,4.076-.8,6.269-1.076q-1.089,1.7-2.12,3.483Zm2.183,17.651a62.884,62.884,0,0,1-6.372-1.025c.611-1.971,1.363-4.02,2.241-6.1q.928,1.793,1.96,3.578h0q1.051,1.815,2.171,3.551Zm10.14,8.381c-1.4-1.511-2.8-3.182-4.16-4.979q1.986.078,4.045.078,2.114,0,4.174-.093a62.868,62.868,0,0,1-4.059,4.993Zm14.1-15.616a62.651,62.651,0,0,1,2.322,6.082,62.689,62.689,0,0,1-6.45,1.1Q67.676,60.813,68.721,59q1.056-1.832,2.005-3.664Zm-4.564,2.188c-1.081,1.874-2.19,3.663-3.317,5.352-2.052.147-4.172.222-6.332.222s-4.245-.067-6.26-.2c-1.172-1.711-2.305-3.505-3.38-5.36h0c-1.071-1.85-2.057-3.716-2.95-5.571.893-1.86,1.876-3.727,2.941-5.574h0c1.068-1.852,2.192-3.637,3.353-5.337,2.056-.155,4.165-.237,6.3-.237h0c2.141,0,4.252.082,6.308.239,1.144,1.688,2.26,3.468,3.331,5.319,1.084,1.873,2.08,3.728,2.981,5.548-.9,1.851-1.891,3.725-2.971,5.6ZM72.256,24.54c2.315,1.335,3.216,6.72,1.761,13.782-.093.451-.2.91-.311,1.375a70.746,70.746,0,0,0-9.245-1.46,69.362,69.362,0,0,0-5.845-7.295q.8-.767,1.59-1.458c5.1-4.442,9.876-6.2,12.05-4.943Z" transform="translate(-16.754 -16.212)"/><path class="b" d="M114.218,94.665a6.174,6.174,0,1,1-6.174,6.174,6.174,6.174,0,0,1,6.174-6.174" transform="translate(-74.458 -65.153)"/></g></svg>