<svg xmlns="http://www.w3.org/2000/svg" width="77.354" height="70" viewBox="0 0 77.354 70"><defs><style>.a{fill:#fdb300;}.b{fill:#eb6c00;}.c{fill:#fdad00;}.d{fill:#fdd231;}.e{fill:#feeeb7;}</style></defs><g transform="translate(0 0)"><path class="a" d="M38.677,0l-21.8,2.3L0,24.961,38.677,70,77.354,24.961,60.477,2.305Z"/><path class="b" d="M0,82.608l38.677,45.039L15.666,82.608Z" transform="translate(0 -57.646)"/><path class="b" d="M151.011,82.608,128,127.647l38.677-45.039Z" transform="translate(-89.323 -57.646)"/><path class="c" d="M51.846,82.608l23.011,45.039L97.868,82.608Z" transform="translate(-36.18 -57.646)"/><path class="d" d="M53.057,2.305,51.846,24.961,74.857,0Z" transform="translate(-36.18)"/><path class="d" d="M151.011,24.962,149.8,2.305,128,0Z" transform="translate(-89.323 0)"/><path class="c" d="M201.356,30.284h15.666L200.145,7.628Z" transform="translate(-139.668 -5.323)"/><path class="c" d="M0,30.284H15.666L16.877,7.628Z" transform="translate(0 -5.323)"/><path class="e" d="M74.857,0,51.846,24.961H97.868Z" transform="translate(-36.18)"/></g></svg>